<svg xmlns="http://www.w3.org/2000/svg" width="1200" height="300" viewBox="0 0 1200 300" role="img" aria-label="Alan Teixidó — Fullstack &amp; AI Engineer"><title>Alan Teixidó — Fullstack &amp; AI Engineer</title><defs><path id="mono13-20" d="M2.4 0L1.2 0L1.2-9.5L6.8-9.5L6.8-8.4L2.4-8.4L2.4-5.3L6.5-5.3L6.5-4.2L2.4-4.2L2.4 0Z"/><path id="mono13-48" d="M3.9 0.1L3.9 0.1Q2.6 0.1 1.9-0.6Q1.2-1.3 1.2-2.6L1.2-2.6L1.2-9.5L2.3-9.5L2.3-2.6Q2.3-1.8 2.7-1.4Q3.1-0.9 3.9-0.9L3.9-0.9Q4.7-0.9 5.1-1.4Q5.5-1.8 5.5-2.6L5.5-2.6L5.5-9.5L6.6-9.5L6.6-2.6Q6.6-1.3 5.9-0.6Q5.2 0.1 3.9 0.1Z"/><path id="mono13-30" d="M7.0 0L1.5 0L1.5-9.5L2.7-9.5L2.7-1.1L7.0-1.1L7.0 0Z"/><path id="mono13-46" d="M4.0 0.1L4.0 0.1Q3.0 0.1 2.3-0.2Q1.7-0.5 1.3-1.1Q0.9-1.7 0.9-2.5L0.9-2.5L2.1-2.5Q2.1-1.8 2.6-1.3Q3.1-0.9 4.0-0.9L4.0-0.9Q4.8-0.9 5.2-1.3Q5.7-1.7 5.7-2.4L5.7-2.4Q5.7-3.0 5.4-3.4Q5.1-3.9 4.5-4.0L4.5-4.0L3.2-4.4Q2.2-4.7 1.7-5.4Q1.2-6.1 1.2-7.1L1.2-7.1Q1.2-7.9 1.5-8.4Q1.9-9.0 2.5-9.3Q3.1-9.6 4.0-9.6L4.0-9.6Q5.2-9.6 6.0-8.9Q6.7-8.2 6.7-7.1L6.7-7.1L5.6-7.1Q5.6-7.8 5.2-8.2Q4.7-8.6 4.0-8.6L4.0-8.6Q3.2-8.6 2.8-8.2Q2.4-7.9 2.4-7.2L2.4-7.2Q2.4-6.6 2.7-6.2Q3.0-5.8 3.6-5.6L3.6-5.6L4.9-5.2Q5.8-4.9 6.3-4.1Q6.9-3.4 6.9-2.5L6.9-2.5Q6.9-1.7 6.5-1.1Q6.1-0.5 5.5-0.2Q4.8 0.1 4.0 0.1Z"/><path id="mono13-47" d="M4.5 0L3.3 0L3.3-8.4L0.7-8.4L0.7-9.5L7.1-9.5L7.1-8.4L4.5-8.4L4.5 0Z"/><path id="mono13-1" d="M1.8 0L0.7 0L3.1-9.5L4.7-9.5L7.2 0L6.0 0L5.3-2.5L2.5-2.5L1.8 0ZM3.4-6.4L2.7-3.5L5.1-3.5L4.4-6.4Q4.2-7.3 4.0-7.8Q3.9-8.4 3.9-8.6L3.9-8.6Q3.9-8.4 3.8-7.8Q3.6-7.3 3.4-6.4L3.4-6.4Z"/><path id="mono13-11" d="M4.0 0.1L4.0 0.1Q3.1 0.1 2.5-0.2Q1.8-0.5 1.5-1.1Q1.1-1.8 1.1-2.6L1.1-2.6L1.1-6.9Q1.1-7.7 1.5-8.4Q1.8-9.0 2.5-9.3Q3.1-9.6 4.0-9.6L4.0-9.6Q4.8-9.6 5.4-9.3Q6.1-9.0 6.4-8.3Q6.7-7.7 6.7-6.9L6.7-6.9L5.6-6.9Q5.6-7.7 5.1-8.1Q4.7-8.6 4.0-8.6L4.0-8.6Q3.2-8.6 2.7-8.1Q2.3-7.7 2.3-6.9L2.3-6.9L2.3-2.6Q2.3-1.8 2.7-1.4Q3.2-0.9 4.0-0.9L4.0-0.9Q4.7-0.9 5.1-1.4Q5.6-1.8 5.6-2.6L5.6-2.6L6.7-2.6Q6.7-1.8 6.4-1.2Q6.1-0.5 5.4-0.2Q4.8 0.1 4.0 0.1Z"/><path id="mono13-29" d="M2.4 0L1.2 0L1.2-9.5L2.4-9.5L2.4-5.4L3.8-5.4L5.9-9.5L7.2-9.5L4.8-4.9L7.3 0L5.9 0L3.7-4.4L2.4-4.4L2.4 0Z"/><path id="mono13-266" d="M3.0 0.1L3.0 0.1Q1.9 0.1 1.3-0.4Q0.7-1.0 0.7-2.0L0.7-2.0L0.7-3.6Q0.7-4.3 1.1-4.8Q1.4-5.3 2.1-5.5L2.1-5.5L2.0-5.6Q1.6-6.1 1.4-6.6Q1.2-7.1 1.2-7.6L1.2-7.6Q1.2-8.2 1.5-8.6Q1.8-9.1 2.3-9.4Q2.9-9.6 3.6-9.6L3.6-9.6Q4.3-9.6 4.9-9.3Q5.4-9.1 5.7-8.6Q6.0-8.1 6.0-7.4L6.0-7.4L4.9-7.4Q4.9-7.8 4.7-8.0Q4.6-8.3 4.3-8.5Q4.0-8.6 3.6-8.6L3.6-8.6Q3.2-8.6 3.0-8.5Q2.7-8.3 2.5-8.1Q2.4-7.9 2.4-7.5L2.4-7.5Q2.4-7.2 2.5-6.8Q2.7-6.4 2.9-6.1L2.9-6.1L5.2-3.0L6.1-4.7L7.3-4.7L5.8-2.1L7.4 0L6.1 0L5.3-1.1Q4.3 0.1 3.0 0.1ZM3.1-0.9L3.1-0.9Q3.5-0.9 3.9-1.2Q4.3-1.5 4.6-2.0L4.6-2.0L2.7-4.7Q2.3-4.6 2.1-4.3Q1.9-4.1 1.9-3.6L1.9-3.6L1.9-2.0Q1.9-1.5 2.2-1.2Q2.5-0.9 3.1-0.9Z"/><path id="mono13-23" d="M6.4 0L1.4 0L1.4-1.1L3.3-1.1L3.3-8.4L1.4-8.4L1.4-9.5L6.4-9.5L6.4-8.4L4.5-8.4L4.5-1.1L6.4-1.1L6.4 0Z"/><path id="mono13-15" d="M6.8 0L1.3 0L1.3-9.5L6.8-9.5L6.8-8.4L2.5-8.4L2.5-5.5L6.3-5.5L6.3-4.4L2.5-4.4L2.5-1.1L6.8-1.1L6.8 0Z"/><path id="mono13-32" d="M2.3 0L1.2 0L1.2-9.5L2.7-9.5L5.6-1.4Q5.6-1.7 5.6-2.2Q5.5-2.6 5.5-3.2Q5.5-3.7 5.5-4.2L5.5-4.2L5.5-9.5L6.6-9.5L6.6 0L5.1 0L2.2-8.1Q2.2-7.8 2.2-7.3Q2.3-6.9 2.3-6.3Q2.3-5.8 2.3-5.3L2.3-5.3L2.3 0Z"/><path id="mono13-21" d="M4.0 0.1L4.0 0.1Q3.1 0.1 2.5-0.2Q1.8-0.5 1.5-1.1Q1.1-1.8 1.1-2.6L1.1-2.6L1.1-6.9Q1.1-7.7 1.5-8.4Q1.8-9.0 2.5-9.3Q3.1-9.6 4.0-9.6L4.0-9.6Q4.8-9.6 5.4-9.3Q6.1-9.0 6.4-8.3Q6.7-7.7 6.7-6.9L6.7-6.9L5.6-6.9Q5.6-7.7 5.1-8.1Q4.7-8.6 4.0-8.6L4.0-8.6Q3.2-8.6 2.7-8.1Q2.3-7.7 2.3-6.9L2.3-6.9L2.3-2.6Q2.3-1.8 2.7-1.4Q3.2-0.9 4.0-0.9L4.0-0.9Q4.7-0.9 5.1-1.4Q5.6-1.8 5.6-2.6L5.6-2.6L5.6-3.8L3.6-3.8L3.6-4.8L6.7-4.8L6.7-2.6Q6.7-1.8 6.4-1.2Q6.1-0.5 5.4-0.2Q4.8 0.1 4.0 0.1Z"/><path id="mono13-45" d="M2.4 0L1.2 0L1.2-9.5L4.1-9.5Q5.0-9.5 5.6-9.1Q6.3-8.8 6.6-8.2Q7.0-7.6 7.0-6.8L7.0-6.8Q7.0-5.8 6.5-5.1Q6.0-4.4 5.1-4.2L5.1-4.2L7.1 0L5.7 0L3.9-4.0L2.4-4.0L2.4 0ZM2.4-8.4L2.4-5.1L4.1-5.1Q4.9-5.1 5.3-5.5Q5.7-6.0 5.7-6.8L5.7-6.8Q5.7-7.5 5.3-8.0Q4.9-8.4 4.1-8.4L4.1-8.4L2.4-8.4Z"/><path id="pj20-1" d="M1.9 0L0.2 0L5.7-14.9L7.4-14.9L12.8 0L11.1 0L9.9-3.6L3.2-3.6L1.9 0ZM6.5-13.0L3.7-5.1L9.3-5.1L6.5-13.0Z"/><path id="pj20-23" d="M3.4 0L1.8 0L1.8-14.9L3.4-14.9L3.4 0Z"/><path id="pj20-59" d="M4.6 0.2L4.6 0.2Q3.6 0.2 2.8-0.1Q2.0-0.5 1.6-1.2Q1.1-1.9 1.1-2.8L1.1-2.8Q1.1-3.6 1.5-4.3Q1.8-5 2.6-5.5Q3.3-6.0 4.5-6.2L4.5-6.2L8.4-6.8L8.4-7.4Q8.4-8.3 7.7-8.9Q7-9.5 5.9-9.5L5.9-9.5Q4.9-9.5 4.2-9.0Q3.4-8.5 3.1-7.8L3.1-7.8L1.7-8.5Q2-9.2 2.6-9.7Q3.3-10.3 4.1-10.6Q5.0-11.0 5.9-11.0L5.9-11.0Q7.1-11.0 8.0-10.5Q8.9-10.0 9.4-9.2Q9.9-8.4 9.9-7.4L9.9-7.4L9.9 0L8.4 0L8.4-1.5Q8.1-1.2 7.8-0.8L7.8-0.8Q7.2-0.3 6.4-0.1Q5.6 0.2 4.6 0.2ZM8.4-4.6L8.4-5.4L4.9-4.9Q3.7-4.7 3.2-4.1Q2.7-3.6 2.7-2.8L2.7-2.8Q2.7-2.1 3.3-1.6Q3.8-1.1 4.7-1.1L4.7-1.1Q5.8-1.1 6.7-1.6Q7.5-2.1 7.9-2.9Q8.4-3.7 8.4-4.6L8.4-4.6Z"/><path id="pj20-78" d="M6.6 4.4L6.6 4.4Q5.5 4.4 4.6 4.1Q3.7 3.7 3.0 3.1Q2.3 2.5 2.0 1.8L2.0 1.8L3.3 1.0Q3.7 1.8 4.5 2.3Q5.3 2.9 6.6 2.9L6.6 2.9Q7.6 2.9 8.4 2.5Q9.2 2.1 9.7 1.4Q10.2 0.7 10.2-0.4L10.2-0.4L10.2-2.1Q9.7-1.3 8.8-0.8L8.8-0.8Q7.7-0.2 6.4-0.2L6.4-0.2Q4.9-0.2 3.7-0.9Q2.5-1.6 1.8-2.8Q1.1-4.1 1.1-5.6L1.1-5.6Q1.1-7.1 1.8-8.3Q2.5-9.5 3.7-10.2Q4.9-11.0 6.4-11.0L6.4-11.0Q7.7-11.0 8.8-10.4L8.8-10.4Q9.6-9.9 10.2-9.1L10.2-9.1L10.2-10.7L11.7-10.7L11.7-0.4Q11.7 1.0 11.1 2.0Q10.4 3.1 9.3 3.8Q8.1 4.4 6.6 4.4ZM6.5-1.7L6.5-1.7Q7.5-1.7 8.3-2.2Q9.2-2.7 9.7-3.6Q10.2-4.5 10.2-5.6Q10.2-6.6 9.7-7.5Q9.2-8.4 8.3-8.9Q7.5-9.5 6.5-9.5L6.5-9.5Q5.4-9.5 4.5-8.9Q3.7-8.4 3.2-7.5Q2.7-6.6 2.7-5.6L2.7-5.6Q2.7-4.5 3.2-3.6Q3.7-2.7 4.5-2.2Q5.4-1.7 6.5-1.7Z"/><path id="pj20-72" d="M6.4 0.2L6.4 0.2Q4.9 0.2 3.7-0.5Q2.5-1.2 1.8-2.5Q1.1-3.8 1.1-5.4Q1.1-7.0 1.8-8.3Q2.5-9.5 3.6-10.2Q4.8-11.0 6.3-11.0L6.3-11.0Q7.4-11.0 8.3-10.5Q9.2-10.1 9.9-9.4Q10.5-8.6 10.9-7.7Q11.2-6.8 11.2-5.9L11.2-5.9Q11.2-5.7 11.2-5.4Q11.2-5.2 11.1-4.9L11.1-4.9L2.7-4.9Q2.7-3.9 3.1-3.2L3.1-3.2Q3.6-2.2 4.5-1.7Q5.4-1.2 6.4-1.2L6.4-1.2Q7.6-1.2 8.4-1.7Q9.2-2.3 9.7-3.1L9.7-3.1L11.0-2.4Q10.7-1.7 10-1.1Q9.3-0.5 8.4-0.1Q7.5 0.2 6.4 0.2ZM2.7-6.3L2.7-6.3L9.6-6.3Q9.6-7.0 9.3-7.7L9.3-7.7Q8.9-8.5 8.1-9.1Q7.3-9.6 6.3-9.6Q5.3-9.6 4.4-9.0Q3.6-8.5 3.1-7.6L3.1-7.6Q2.8-7.0 2.7-6.3Z"/><path id="pj20-92" d="M3.0 0L1.5 0L1.5-10.7L3.0-10.7L3.0-9.4Q3.4-10.0 4.0-10.4L4.0-10.4Q4.9-11.0 6.1-11.0L6.1-11.0Q7.3-11.0 8.2-10.4Q9.1-9.9 9.6-9.0Q10.1-8.1 10.1-7.0L10.1-7.0L10.1 0L8.6 0L8.6-6.4Q8.6-7.4 8.3-8.0Q7.9-8.7 7.3-9.1Q6.7-9.5 5.9-9.5Q5.0-9.5 4.4-9.1Q3.8-8.7 3.4-8.0Q3.0-7.3 3.0-6.4L3.0-6.4L3.0 0Z"/><path id="pj20-108" d="M5.6 0.1L5.6 0.1Q4.2 0.1 3.4-0.7Q2.6-1.6 2.6-3.1L2.6-3.1L2.6-9.2L0.7-9.2L0.7-10.7L1.2-10.7Q1.8-10.7 2.2-11.2Q2.6-11.6 2.6-12.3L2.6-12.3L2.6-13.2L4.1-13.2L4.1-10.7L6.5-10.7L6.5-9.2L4.1-9.2L4.1-3.1Q4.1-2.6 4.3-2.2Q4.5-1.8 4.9-1.5Q5.2-1.3 5.9-1.3L5.9-1.3Q6.1-1.3 6.3-1.3Q6.5-1.3 6.7-1.3L6.7-1.3L6.7 0Q6.4 0.1 6.1 0.1Q5.8 0.1 5.6 0.1Z"/><path id="pj20-106" d="M5.3 0.2L5.3 0.2Q3.7 0.2 2.6-0.5Q1.4-1.3 0.9-2.7L0.9-2.7L2.1-3.3Q2.6-2.3 3.4-1.7Q4.3-1.1 5.3-1.1L5.3-1.1Q6.2-1.1 6.9-1.6Q7.5-2.1 7.5-2.8L7.5-2.8Q7.5-3.4 7.2-3.7Q6.9-4.0 6.5-4.2Q6.1-4.4 5.7-4.5L5.7-4.5L4.2-4.9Q2.7-5.3 2.1-6.1Q1.4-6.9 1.4-7.9L1.4-7.9Q1.4-8.8 1.9-9.5Q2.4-10.2 3.2-10.6Q4-11.0 5-11.0L5-11.0Q6.4-11.0 7.5-10.3Q8.6-9.5 9.0-8.3L9.0-8.3L7.8-7.7Q7.4-8.6 6.6-9.1Q5.9-9.6 4.9-9.6L4.9-9.6Q4.0-9.6 3.5-9.1Q3.0-8.7 3.0-8.0L3.0-8.0Q3.0-7.4 3.2-7.1Q3.5-6.8 3.9-6.6Q4.3-6.5 4.5-6.4L4.5-6.4L6.3-5.9Q7.6-5.5 8.3-4.7Q9.1-3.9 9.1-2.8L9.1-2.8Q9.1-1.9 8.6-1.2Q8.1-0.5 7.2-0.1Q6.4 0.2 5.3 0.2Z"/><path id="pj20-185" d="M1.6 2.6L1.6 2.6L1.6 1.9Q2.2 1.7 2.5 1.3Q2.8 0.8 2.8 0L2.8 0L2 0L2-2.2L3.6-2.2L3.6-0.5Q3.6 0.8 3.1 1.6Q2.6 2.4 1.6 2.6Z"/><path id="pj20-79" d="M3.0 0L1.5 0L1.5-15.1L3.0-15.1L3.0-9.4Q3.4-10.0 4.0-10.4L4.0-10.4Q4.9-11.0 6.1-11.0L6.1-11.0Q7.3-11.0 8.2-10.4Q9.1-9.9 9.6-9.0Q10.1-8.1 10.1-7.0L10.1-7.0L10.1 0L8.6 0L8.6-6.4Q8.6-7.4 8.3-8.0Q7.9-8.7 7.3-9.1Q6.7-9.5 5.9-9.5Q5.1-9.5 4.4-9.1Q3.8-8.7 3.4-8.0Q3.0-7.3 3.0-6.4L3.0-6.4L3.0 0Z"/><path id="pj20-42" d="M3.4 0L1.8 0L1.8-14.9L6.9-14.9Q8.3-14.9 9.4-14.3Q10.5-13.8 11.2-12.7Q11.8-11.7 11.8-10.3L11.8-10.3Q11.8-9.0 11.2-8.0Q10.5-6.9 9.5-6.4Q8.4-5.8 6.9-5.8L6.9-5.8L3.4-5.8L3.4 0ZM3.4-13.4L3.4-7.3L7.0-7.3Q7.9-7.3 8.6-7.7Q9.4-8.0 9.8-8.7Q10.2-9.4 10.2-10.4L10.2-10.4Q10.2-11.3 9.8-12.0Q9.4-12.7 8.6-13.0Q7.9-13.4 7.0-13.4L7.0-13.4L3.4-13.4Z"/><path id="pj20-67" d="M7.0 0.2L7.0 0.2Q5.6 0.2 4.5-0.4L4.5-0.4Q3.6-0.9 3.0-1.7L3.0-1.7L3.0 0L1.5 0L1.5-15.1L3.0-15.1L3.0-9.1Q3.6-9.9 4.5-10.4L4.5-10.4Q5.6-11.0 7.0-11.0L7.0-11.0Q8.5-11.0 9.7-10.2Q10.9-9.5 11.6-8.2Q12.2-7.0 12.2-5.4L12.2-5.4Q12.2-3.8 11.6-2.5Q10.9-1.2 9.7-0.5Q8.5 0.2 7.0 0.2ZM6.9-1.3L6.9-1.3Q8.0-1.3 8.8-1.8Q9.7-2.3 10.2-3.3Q10.6-4.2 10.6-5.4L10.6-5.4Q10.6-6.5 10.2-7.5Q9.7-8.4 8.8-8.9Q8.0-9.5 6.9-9.5Q5.8-9.5 4.9-8.9Q4.1-8.4 3.6-7.5Q3.0-6.5 3.0-5.4Q3.0-4.2 3.6-3.3Q4.1-2.3 4.9-1.8Q5.8-1.3 6.9-1.3Z"/><path id="pj20-80" d="M3.0 0L1.5 0L1.5-10.7L3.0-10.7L3.0 0ZM3.0-12.7L1.5-12.7L1.5-14.9L3.0-14.9L3.0-12.7Z"/><path id="pj20-70" d="M6.4 0.2L6.4 0.2Q4.9 0.2 3.7-0.5Q2.5-1.2 1.8-2.5Q1.1-3.8 1.1-5.4L1.1-5.4Q1.1-7.0 1.8-8.2Q2.5-9.5 3.7-10.2Q4.9-11.0 6.4-11.0L6.4-11.0Q7.8-11.0 8.8-10.4L8.8-10.4Q9.7-9.9 10.3-9.1L10.3-9.1L10.3-15.1L11.8-15.1L11.8 0L10.3 0L10.3-1.7Q9.8-0.9 8.9-0.4L8.9-0.4Q7.8 0.2 6.4 0.2ZM6.5-1.3L6.5-1.3Q7.5-1.3 8.4-1.8Q9.3-2.3 9.8-3.3Q10.3-4.2 10.3-5.4Q10.3-6.5 9.8-7.5Q9.3-8.4 8.4-8.9Q7.5-9.5 6.5-9.5L6.5-9.5Q5.4-9.5 4.5-8.9Q3.7-8.4 3.2-7.5Q2.7-6.5 2.7-5.4L2.7-5.4Q2.7-4.2 3.2-3.3Q3.7-2.3 4.5-1.8Q5.4-1.3 6.5-1.3Z"/><path id="pj20-91" d="M3.0 0L1.5 0L1.5-10.7L3.0-10.7L3.0-9.4Q3.5-10.0 4.1-10.4L4.1-10.4Q5.0-11.0 6.0-11.0L6.0-11.0Q7.3-11.0 8.3-10.3L8.3-10.3Q9.0-9.7 9.5-8.9L9.5-8.9Q9.9-9.8 10.7-10.3L10.7-10.3Q11.6-11.0 12.8-11.0L12.8-11.0Q13.9-11.0 14.8-10.4Q15.7-9.9 16.3-9.0Q16.8-8.1 16.8-7.0L16.8-7.0L16.8 0L15.3 0L15.3-6.4Q15.3-7.4 15.0-8.0Q14.6-8.7 14.0-9.1Q13.4-9.5 12.7-9.5L12.7-9.5Q11.9-9.5 11.3-9.1Q10.7-8.7 10.3-8.0Q9.9-7.3 9.9-6.4L9.9-6.4L9.9 0L8.4 0L8.4-6.4Q8.4-7.4 8.1-8.0Q7.7-8.7 7.1-9.1Q6.5-9.5 5.8-9.5Q5.0-9.5 4.4-9.1Q3.8-8.7 3.4-8.0Q3.0-7.3 3.0-6.4L3.0-6.4L3.0 0Z"/><path id="pj20-102" d="M3.0 4L1.5 4L1.5-10.7L3.0-10.7L3.0-9.1Q3.6-9.9 4.5-10.4L4.5-10.4Q5.6-11.0 7.0-11.0L7.0-11.0Q8.5-11.0 9.7-10.2Q10.9-9.5 11.6-8.2Q12.2-7.0 12.2-5.4L12.2-5.4Q12.2-3.8 11.6-2.5Q10.9-1.2 9.7-0.5Q8.5 0.2 7.0 0.2L7.0 0.2Q5.6 0.2 4.5-0.4L4.5-0.4Q3.6-0.9 3.0-1.7L3.0-1.7L3.0 4ZM6.9-1.3L6.9-1.3Q8.0-1.3 8.8-1.8Q9.7-2.3 10.2-3.3Q10.6-4.2 10.6-5.4L10.6-5.4Q10.6-6.5 10.2-7.5Q9.7-8.4 8.8-8.9Q8.0-9.5 6.9-9.5Q5.8-9.5 4.9-8.9Q4.1-8.4 3.6-7.5Q3.0-6.5 3.0-5.4Q3.0-4.2 3.6-3.3Q4.1-2.3 4.9-1.8Q5.8-1.3 6.9-1.3Z"/><path id="pj20-94" d="M6.6 0.2L6.6 0.2Q5.0 0.2 3.8-0.5Q2.6-1.2 1.8-2.5Q1.1-3.8 1.1-5.4L1.1-5.4Q1.1-7.0 1.8-8.2Q2.5-9.5 3.8-10.2Q5-11.0 6.6-11.0L6.6-11.0Q8.1-11.0 9.3-10.2Q10.6-9.5 11.3-8.3Q12-7 12-5.4L12-5.4Q12-3.7 11.3-2.5Q10.5-1.2 9.3-0.5Q8.1 0.2 6.6 0.2ZM6.6-1.3L6.6-1.3Q7.6-1.3 8.5-1.8Q9.4-2.3 9.9-3.3Q10.4-4.2 10.4-5.4L10.4-5.4Q10.4-6.5 9.9-7.5Q9.4-8.4 8.5-8.9Q7.6-9.5 6.6-9.5L6.6-9.5Q5.5-9.5 4.6-8.9Q3.7-8.4 3.2-7.5Q2.7-6.5 2.7-5.4L2.7-5.4Q2.7-4.2 3.2-3.3Q3.7-2.3 4.6-1.8Q5.5-1.3 6.6-1.3Z"/><path id="pj20-202" d="M16.5-4.7L1.5-4.7L1.5-6.1L16.5-6.1L16.5-4.7Z"/><path id="pj20-10" d="M8.0 0L1.8 0L1.8-14.9L8.0-14.9Q9.3-14.9 10.2-14.4Q11.1-14.0 11.7-13.1Q12.2-12.3 12.2-11.2L12.2-11.2Q12.2-10 11.6-9.1L11.6-9.1Q11.2-8.4 10.5-8.0L10.5-8.0Q11.0-7.7 11.5-7.3L11.5-7.3Q12.1-6.8 12.4-6.0Q12.8-5.2 12.8-4.3L12.8-4.3Q12.8-2.3 11.5-1.2Q10.2 0 8.0 0L8.0 0ZM3.4-7.2L3.4-1.5L8.0-1.5Q9.5-1.5 10.3-2.3Q11.2-3 11.2-4.3L11.2-4.3Q11.2-5.6 10.3-6.4Q9.5-7.2 8.0-7.2L8.0-7.2L3.4-7.2ZM3.4-13.4L3.4-8.6L7.9-8.6Q9.1-8.6 9.8-9.3Q10.6-10 10.6-11.1L10.6-11.1Q10.6-12.2 9.8-12.8Q9.1-13.4 7.9-13.4L7.9-13.4L3.4-13.4Z"/><path id="pj20-105" d="M3.0 0L1.5 0L1.5-10.7L3.0-10.7L3.0-9.6Q3.4-10.1 4-10.4L4-10.4Q4.8-10.9 5.9-10.9L5.9-10.9L6.5-10.9L6.5-9.4L5.6-9.4Q4.4-9.4 3.7-8.6Q3.0-7.9 3.0-6.6L3.0-6.6L3.0 0Z"/><path id="pj20-68" d="M6.4 0.2L6.4 0.2Q4.9 0.2 3.7-0.5Q2.5-1.2 1.8-2.5Q1.1-3.8 1.1-5.4L1.1-5.4Q1.1-7.0 1.8-8.2Q2.5-9.5 3.7-10.2Q4.9-11.0 6.4-11.0L6.4-11.0Q7.4-11.0 8.3-10.6Q9.2-10.2 9.9-9.6Q10.6-9.0 10.9-8.2L10.9-8.2L9.5-7.5Q9.1-8.4 8.3-8.9Q7.5-9.5 6.4-9.5L6.4-9.5Q5.4-9.5 4.5-8.9Q3.7-8.4 3.2-7.5Q2.7-6.5 2.7-5.4L2.7-5.4Q2.7-4.2 3.2-3.3Q3.7-2.3 4.5-1.8Q5.4-1.3 6.4-1.3L6.4-1.3Q7.5-1.3 8.3-1.8Q9.1-2.3 9.5-3.2L9.5-3.2L10.9-2.5Q10.6-1.7 9.9-1.1Q9.2-0.5 8.3-0.1Q7.4 0.2 6.4 0.2Z"/><path id="pj20-90" d="M3.0 0L1.5 0L1.5-15.1L3.0-15.1L3.0 0Z"/><path id="monoM14-59" d="M3.4 0.1L3.4 0.1Q2.2 0.1 1.5-0.5Q0.8-1.1 0.8-2.2L0.8-2.2Q0.8-3.3 1.6-3.9Q2.3-4.5 3.6-4.5L3.6-4.5L5.7-4.5L5.7-5.2Q5.7-5.9 5.3-6.2Q5.0-6.6 4.2-6.6L4.2-6.6Q3.6-6.6 3.2-6.3Q2.8-6.0 2.7-5.6L2.7-5.6L1.2-5.6Q1.3-6.6 2.2-7.2Q3.0-7.8 4.3-7.8L4.3-7.8Q5.7-7.8 6.5-7.1Q7.3-6.5 7.3-5.3L7.3-5.3L7.3 0L5.8 0L5.8-1.4L5.8-1.4Q5.7-0.8 5.1-0.4L5.1-0.4Q4.5 0.1 3.4 0.1ZM3.9-1.0L3.9-1.0Q4.7-1.0 5.2-1.4Q5.7-1.8 5.7-2.5L5.7-2.5L5.7-3.5L3.6-3.5Q3.0-3.5 2.7-3.2Q2.4-2.9 2.4-2.3L2.4-2.3Q2.4-1.7 2.8-1.4Q3.2-1.0 3.9-1.0Z"/><path id="monoM14-90" d="M7.8 0L5.3 0Q4.6 0 4.1-0.3Q3.5-0.6 3.2-1.1Q2.9-1.6 2.9-2.3L2.9-2.3L2.9-8.8L0.4-8.8L0.4-10.2L4.4-10.2L4.4-2.3Q4.4-1.9 4.7-1.6Q4.9-1.4 5.4-1.4L5.4-1.4L7.8-1.4L7.8 0Z"/><path id="monoM14-92" d="M2.7 0L1.2 0L1.2-7.7L2.7-7.7L2.7-6.2L2.7-6.2Q2.8-6.9 3.2-7.3L3.2-7.3Q3.8-7.8 4.7-7.8L4.7-7.8Q5.9-7.8 6.6-7.1Q7.3-6.4 7.3-5.1L7.3-5.1L7.3 0L5.7 0L5.7-5.0Q5.7-5.7 5.3-6.1Q4.9-6.5 4.2-6.5L4.2-6.5Q3.5-6.5 3.1-6.1Q2.7-5.7 2.7-4.9L2.7-4.9L2.7 0Z"/><path id="monoM14-108" d="M7.2 0L5.0 0Q4.0 0 3.4-0.6Q2.8-1.1 2.8-2.2L2.8-2.2L2.8-6.3L0.7-6.3L0.7-7.7L2.8-7.7L2.8-9.9L4.3-9.9L4.3-7.7L7.3-7.7L7.3-6.3L4.3-6.3L4.3-2.2Q4.3-1.4 5.1-1.4L5.1-1.4L7.2-1.4L7.2 0Z"/><path id="monoM14-72" d="M4.2 0.1L4.2 0.1Q3.3 0.1 2.6-0.2Q1.8-0.6 1.5-1.3Q1.1-1.9 1.1-2.8L1.1-2.8L1.1-4.9Q1.1-5.8 1.5-6.4Q1.8-7.1 2.6-7.5Q3.3-7.8 4.2-7.8L4.2-7.8Q5.2-7.8 5.9-7.5Q6.6-7.1 6.9-6.4Q7.3-5.8 7.3-4.9L7.3-4.9L7.3-3.5L2.5-3.5L2.5-2.8Q2.5-2.0 3.0-1.5Q3.4-1.1 4.2-1.1L4.2-1.1Q4.9-1.1 5.3-1.3Q5.7-1.6 5.8-2.0L5.8-2.0L7.3-2.0Q7.1-1.0 6.3-0.4Q5.4 0.1 4.2 0.1ZM2.5-4.5L5.9-4.5L5.9-4.9Q5.9-5.7 5.4-6.2Q5.0-6.6 4.2-6.6L4.2-6.6Q3.4-6.6 3.0-6.2Q2.5-5.7 2.5-4.9L2.5-4.9L2.5-4.5Z"/><path id="monoM14-80" d="M7.8 0L1.1 0L1.1-1.4L3.8-1.4L3.8-6.3L1.5-6.3L1.5-7.7L5.3-7.7L5.3-1.4L7.8-1.4L7.8 0ZM4.4-9.0L4.4-9.0Q3.9-9.0 3.6-9.3Q3.3-9.5 3.3-10.0L3.3-10.0Q3.3-10.4 3.6-10.7Q3.9-10.9 4.4-10.9L4.4-10.9Q4.9-10.9 5.2-10.7Q5.5-10.4 5.5-10.0L5.5-10.0Q5.5-9.5 5.2-9.3Q4.9-9.0 4.4-9.0Z"/><path id="monoM14-116" d="M2.3 0L0.6 0L3.3-4.0L0.8-7.7L2.5-7.7L3.9-5.6Q4.0-5.4 4.1-5.2Q4.2-5.0 4.2-4.9L4.2-4.9Q4.3-5.0 4.4-5.2Q4.5-5.4 4.5-5.6L4.5-5.6L5.9-7.7L7.6-7.7L5.1-4.0L7.8 0L6.1 0L4.6-2.3Q4.5-2.5 4.4-2.7Q4.3-2.9 4.2-3.0L4.2-3.0Q4.2-2.9 4.1-2.7Q3.9-2.5 3.8-2.3L3.8-2.3L2.3 0Z"/><path id="monoM14-70" d="M3.7 0.1L3.7 0.1Q2.5 0.1 1.8-0.6Q1.1-1.4 1.1-2.8L1.1-2.8L1.1-4.9Q1.1-6.3 1.8-7.1Q2.5-7.8 3.7-7.8L3.7-7.8Q4.6-7.8 5.2-7.3L5.2-7.3Q5.6-6.9 5.7-6.2L5.7-6.2L5.8-6.2L5.7-8.0L5.7-10.2L7.2-10.2L7.2 0L5.7 0L5.7-1.5L5.7-1.5Q5.6-0.8 5.2-0.4L5.2-0.4Q4.6 0.1 3.7 0.1ZM4.2-1.2L4.2-1.2Q4.9-1.2 5.3-1.6Q5.7-2.1 5.7-2.8L5.7-2.8L5.7-4.9Q5.7-5.6 5.3-6.1Q4.9-6.5 4.2-6.5L4.2-6.5Q3.4-6.5 3.0-6.1Q2.6-5.7 2.6-4.9L2.6-4.9L2.6-2.8Q2.6-2.0 3.0-1.6Q3.4-1.2 4.2-1.2Z"/><path id="monoM14-94" d="M4.2 0.1L4.2 0.1Q3.2 0.1 2.5-0.2Q1.8-0.6 1.5-1.3Q1.1-1.9 1.1-2.9L1.1-2.9L1.1-4.8Q1.1-5.8 1.5-6.4Q1.8-7.1 2.5-7.5Q3.2-7.8 4.2-7.8L4.2-7.8Q5.2-7.8 5.9-7.5Q6.6-7.1 6.9-6.4Q7.3-5.8 7.3-4.8L7.3-4.8L7.3-2.9Q7.3-1.9 6.9-1.3Q6.6-0.6 5.9-0.2Q5.2 0.1 4.2 0.1ZM4.2-1.2L4.2-1.2Q5.0-1.2 5.4-1.6Q5.8-2.1 5.8-2.9L5.8-2.9L5.8-4.8Q5.8-5.7 5.4-6.1Q5.0-6.5 4.2-6.5L4.2-6.5Q3.4-6.5 3.0-6.1Q2.6-5.7 2.6-4.8L2.6-4.8L2.6-2.9Q2.6-2.1 3.0-1.6Q3.4-1.2 4.2-1.2Z"/><path id="mono14-140" d="M4.2 0.1L4.2 0.1Q3.7 0.1 3.4-0.2Q3.0-0.5 3.0-1.0L3.0-1.0Q3.0-1.5 3.4-1.9Q3.7-2.2 4.2-2.2L4.2-2.2Q4.7-2.2 5.0-1.9Q5.4-1.5 5.4-1.0L5.4-1.0Q5.4-0.5 5.0-0.2Q4.7 0.1 4.2 0.1Z"/><path id="mono14-70" d="M3.8 0.1L3.8 0.1Q2.6 0.1 1.9-0.6Q1.2-1.4 1.2-2.7L1.2-2.7L1.2-5.0Q1.2-6.3 1.9-7.1Q2.6-7.8 3.8-7.8L3.8-7.8Q4.7-7.8 5.3-7.3L5.3-7.3Q5.8-6.9 5.8-6.2L5.8-6.2L5.9-6.2L5.9-8.0L5.9-10.2L7.1-10.2L7.1 0L5.9 0L5.9-1.5L5.8-1.5Q5.8-0.8 5.3-0.4L5.3-0.4Q4.7 0.1 3.8 0.1ZM4.2-1.0L4.2-1.0Q5.0-1.0 5.4-1.4Q5.9-1.9 5.9-2.8L5.9-2.8L5.9-4.9Q5.9-5.8 5.4-6.3Q5.0-6.7 4.2-6.7L4.2-6.7Q3.4-6.7 2.9-6.3Q2.5-5.8 2.5-4.9L2.5-4.9L2.5-2.8Q2.5-1.9 2.9-1.4Q3.4-1.0 4.2-1.0Z"/><path id="mono14-72" d="M4.2 0.1L4.2 0.1Q3.3 0.1 2.6-0.2Q1.9-0.6 1.6-1.3Q1.2-1.9 1.2-2.8L1.2-2.8L1.2-4.9Q1.2-5.8 1.6-6.5Q1.9-7.1 2.6-7.5Q3.3-7.8 4.2-7.8Q5.1-7.8 5.8-7.5Q6.5-7.1 6.8-6.5Q7.2-5.8 7.2-4.9L7.2-4.9L7.2-3.5L2.4-3.5L2.4-2.8Q2.4-1.9 2.9-1.4Q3.3-0.9 4.2-0.9L4.2-0.9Q4.9-0.9 5.4-1.2Q5.8-1.4 5.9-2.0L5.9-2.0L7.2-2.0Q7.1-1.0 6.2-0.4Q5.4 0.1 4.2 0.1ZM2.4-4.5L6.0-4.5L6.0-4.9Q6.0-5.8 5.5-6.3Q5.1-6.8 4.2-6.8L4.2-6.8Q3.3-6.8 2.9-6.3Q2.4-5.8 2.4-4.9L2.4-4.9L2.4-4.5Z"/><path id="mono14-114" d="M5.1 0L3.3 0L0.8-7.7L2.1-7.7L3.8-2.5Q3.9-2.1 4.0-1.6Q4.2-1.2 4.2-1.0L4.2-1.0Q4.3-1.2 4.4-1.6Q4.5-2.1 4.7-2.5L4.7-2.5L6.4-7.7L7.6-7.7L5.1 0Z"/></defs>
<defs>
  <pattern id="dots" width="26" height="26" patternUnits="userSpaceOnUse"><rect x="12" y="12" width="1.4" height="1.4" fill="#ffffff" fill-opacity="0.09"/></pattern>
  <linearGradient id="fadeDots" x1="0" x2="1"><stop offset="0" stop-color="#fff" stop-opacity="0"/><stop offset="0.35" stop-color="#fff"/><stop offset="0.75" stop-color="#fff"/><stop offset="1" stop-color="#fff" stop-opacity="0"/></linearGradient>
  <mask id="dotsMask"><rect width="1200" height="300" fill="url(#fadeDots)"/></mask>
  <linearGradient id="metal" gradientUnits="userSpaceOnUse" x1="60" y1="0" x2="497.988" y2="0">
    <stop offset="0" stop-color="#d4d4d8"/><stop offset="0.3" stop-color="#fafafa"/><stop offset="0.55" stop-color="#a1a1aa"/><stop offset="0.75" stop-color="#ffffff"/><stop offset="1" stop-color="#b4b4bc"/>
  </linearGradient>
  <linearGradient id="glint" gradientUnits="userSpaceOnUse" x1="0" y1="0" x2="160" y2="0">
    <stop offset="0" stop-color="#ffffff" stop-opacity="0"/><stop offset="0.5" stop-color="#ffffff" stop-opacity="0.95"/><stop offset="1" stop-color="#ffffff" stop-opacity="0"/>
    <animateTransform attributeName="gradientTransform" type="translate" values="-200 0;697.988 0;697.988 0" keyTimes="0;0.28;1" dur="7s" begin="1s" repeatCount="indefinite"/>
  </linearGradient>
  <linearGradient id="rule" x1="0" x2="1"><stop offset="0" stop-color="#fafafa"/><stop offset="0.6" stop-color="#71717a"/><stop offset="1" stop-color="#71717a" stop-opacity="0"/></linearGradient>
  <linearGradient id="horizon" gradientUnits="userSpaceOnUse" x1="700" y1="0" x2="1200" y2="0"><stop offset="0" stop-color="#fff" stop-opacity="0"/><stop offset="0.45" stop-color="#fff"/><stop offset="1" stop-color="#fff" stop-opacity="0.55"/></linearGradient>
  <filter id="glow" x="-10%" y="-400%" width="120%" height="900%"><feGaussianBlur stdDeviation="4"/></filter>
  <clipPath id="frame"><rect width="1200" height="300" rx="16"/></clipPath>
</defs>
<g clip-path="url(#frame)">
  <rect width="1200" height="300" fill="#09090b"/>
  <rect width="1200" height="300" fill="url(#dots)" mask="url(#dotsMask)"/>
  <g><g fill="none" stroke-linejoin="round"><path d="M1029.4 129.8L1030.8 134.3L1032.3 139.1L1033.3 144.0L1033.7 148.9L1033.6 153.8L1032.9 158.6L1031.8 163.1L1030.2 167.3L1028.2 171.1L1025.8 174.5L1023.0 177.3L1019.9 179.5L1016.5 181.0L1013.0 181.8L1009.2 181.8L1005.5 181.2L1001.8 179.9L998.3 178.2L995.1 176.1L992.2 174.0L989.5 171.9L986.9 169.9L984.5 168.0L982.0 166.3L979.5 164.8L976.9 163.5L974.1 162.3L971.1 161.2L967.9 160.3L964.5 159.4L960.8 158.5L956.8 157.5L952.5 156.5L948.0 155.1L943.3 153.5L938.5 151.5L933.7 149.0L928.9 145.9L924.5 142.1L920.9 137.6L918.9 132.3L919.6 126.1L921.7 119.3L923.8 112.2L925.9 105.2L928.7 98.2L932.5 91.3L937.4 84.9L943.4 79.1L950.5 74.2L958.3 70.4L966.7 67.9L975.2 66.8L983.5 67.0L991.5 68.4L998.7 71.0L1005.1 74.5L1010.6 78.7L1015.1 83.3L1018.6 88.2L1021.4 93.3L1023.4 98.4L1025.3 103.4L1027.7 108.5L1030.7 113.7L1031.8 118.6L1030.6 123.1L1028.2 127.0L1025.4 130.4L1022.4 133.2L1019.3 135.5L1016.3 137.3L1013.6 138.7L1011.1 139.8L1008.8 140.7L1006.9 141.4L1005.2 142.2L1003.9 143.0L1002.7 143.8L1001.8 144.8L1001.1 146.0L1000.6 147.3L1000.3 148.9L1000.5 150.5L1000.6 152.0L999.8 153.7L998.1 156.2L996.4 159.4L994.7 162.9L992.8 166.6L990.8 170.5L988.6 174.5L986.2 178.6L983.4 182.7L980.4 186.8L977.2 190.9L973.6 194.8L969.9 198.6L965.9 202.2L961.7 205.5L957.4 208.4L953.2 210.7L949.1 212.4L945.5 213.1L942.8 212.9L941.5 211.2L942.4 207.6L945.6 201.4L949.2 193.5L951.9 185.7L954.3 178.8L956.8 172.4L959.6 166.5L962.6 161.0L965.5 156.0L968.4 151.6L971.0 147.7L973.3 144.3L975.3 141.3L976.8 138.7L978.0 136.3L978.8 134.1L979.3 132.0L979.5 129.9L979.5 127.7L979.4 125.5L979.4 123.1L979.6 120.6L980.0 118.1L980.8 115.6L981.9 113.1L983.3 110.8L985.0 108.7L987.0 106.7L989.2 105.1L991.6 103.8L994.3 102.8L997.1 102.2L1000.1 102.1L1003.3 102.4L1006.4 103.3L1009.6 104.6L1012.7 106.5L1015.6 108.8L1018.3 111.5L1020.8 114.6L1023.1 118.0L1025.1 121.7L1027.1 125.7L1028.7 130.0M1033.8 128.9L1035.4 133.6L1037.0 138.7L1038.0 143.8L1038.3 148.9L1038.0 153.9L1037.3 158.7L1036.1 163.3L1034.4 167.5L1032.4 171.4L1030.0 174.8L1027.3 177.7L1024.2 180.0L1020.7 181.7L1017.0 182.6L1013.1 182.9L1008.9 182.5L1004.7 181.4L1000.5 179.8L996.4 177.8L992.6 175.6L989.1 173.3L985.9 171.0L983.0 169.0L980.1 167.1L977.4 165.4L974.8 163.9L972.1 162.7L969.3 161.6L966.3 160.6L963.3 159.7L960.0 158.8L956.4 157.8L952.7 156.7L948.8 155.3L944.7 153.6L940.6 151.4L936.6 148.7L932.9 145.4L929.7 141.3L927.6 136.4L927.0 130.4L927.6 123.7L927.9 116.6L927.9 109.6L928.4 102.5L930.1 95.5L933.1 88.5L937.4 81.9L943.1 76.0L949.9 71.0L957.6 67.1L965.8 64.5L974.3 63.4L982.7 63.7L990.7 65.2L998.0 67.9L1004.4 71.5L1009.9 75.9L1014.3 80.8L1017.6 85.9L1020.0 91.2L1021.4 96.5L1021.9 101.7L1022.3 106.9L1023.6 112.3L1024.9 117.5L1024.7 122.1L1023.0 126.0L1020.7 129.3L1017.9 132.1L1015.0 134.2L1012.1 135.9L1009.3 137.3L1006.7 138.3L1004.4 139.1L1002.4 139.8L1000.7 140.5L999.3 141.3L998.1 142.2L997.2 143.2L996.5 144.6L996.0 146.2L995.8 148.1L996.2 150.4L997.4 152.9L998.5 155.3L998.4 157.8L997.5 160.8L996.2 164.1L994.7 167.6L992.9 171.3L990.9 175.2L988.6 179.1L986.1 183.1L983.3 187.0L980.3 190.9L977.1 194.7L973.6 198.3L970.0 201.7L966.3 204.6L962.6 207.1L958.9 209.0L955.6 210.0L952.7 210.0L950.6 208.6L949.6 205.5L949.6 200.2L950.0 193.1L949.5 185.7L949.0 179.2L949.4 173.2L950.8 167.3L953.0 161.7L955.6 156.4L958.4 151.5L961.3 147.2L963.9 143.4L966.3 140.1L968.4 137.3L970.0 134.9L971.3 132.7L972.3 130.8L972.9 128.9L973.3 126.9L973.5 125.0L973.6 122.8L973.8 120.6L974.0 118.2L974.5 115.7L975.3 113.2L976.6 110.7L978.2 108.3L980.2 106.1L982.5 104.0L985.2 102.3L988.0 100.9L991.2 99.9L994.5 99.3L998.0 99.3L1001.6 99.7L1005.2 100.6L1008.8 102.1L1012.3 104.0L1015.7 106.5L1018.9 109.3L1022.0 112.6L1024.9 116.1L1027.8 120.0L1030.5 124.3L1032.5 128.7M1037.2 128.0L1038.5 132.9L1039.3 137.9L1039.4 142.9L1039.2 147.8L1038.5 152.4L1037.5 156.8L1036.1 160.9L1034.5 164.7L1032.5 168.1L1030.3 171.0L1027.8 173.5L1025.1 175.4L1022.1 176.8L1018.9 177.6L1015.4 177.9L1011.8 177.7L1008.0 176.9L1004.0 175.6L1000.0 173.8L996.0 171.7L992.1 169.4L988.4 167.1L985.0 164.8L981.7 162.7L978.7 160.8L975.7 159.2L972.8 157.9L969.9 156.7L967.0 155.7L964.1 154.8L961.1 153.8L957.9 152.8L954.7 151.7L951.4 150.3L948.0 148.5L944.6 146.4L941.3 143.8L938.2 140.6L935.4 136.7L933.1 132.0L931.1 126.4L928.6 120.1L925.4 113.3L922.9 106.1L922.1 98.4L923.1 90.4L925.9 82.3L930.6 74.5L936.9 67.5L944.6 61.5L953.5 56.9L963.2 53.9L973.1 52.7L982.9 53.1L992.3 55.1L1000.7 58.5L1008.2 63.0L1014.4 68.4L1019.3 74.3L1023.0 80.5L1025.4 86.8L1026.4 93.0L1026.0 98.9L1024.1 104.5L1021.8 109.7L1020.7 114.4L1019.7 118.5L1018.2 122.0L1016.2 124.8L1014.0 127.2L1011.6 129.2L1009.2 130.7L1006.8 132.0L1004.6 133.0L1002.6 133.9L1000.8 134.7L999.2 135.6L997.9 136.5L996.8 137.6L995.9 139.0L995.1 140.6L994.4 142.6L993.7 144.9L993.2 147.8L993.3 151.1L994.4 154.5L994.9 157.5L994.7 160.5L993.9 163.5L992.7 166.7L991.2 170.1L989.5 173.5L987.4 177.0L985.2 180.5L982.7 184.0L980.0 187.4L977.1 190.7L974.0 193.7L970.8 196.5L967.5 198.8L964.2 200.6L960.9 201.8L957.9 202.2L955.1 201.6L952.7 199.9L950.5 196.8L948.3 192.4L945.2 187.3L941.8 182.4L940.0 177.4L940.2 171.7L942.1 165.5L945.1 159.0L948.8 152.8L952.9 147.0L956.9 141.9L960.6 137.4L963.8 133.7L966.5 130.7L968.7 128.1L970.3 126.0L971.5 124.1L972.2 122.3L972.7 120.6L973.0 118.9L973.2 117.1L973.3 115.1L973.4 113.0L973.7 110.7L974.2 108.3L975.2 105.9L976.5 103.4L978.4 101.1L980.8 98.9L983.6 97.0L986.9 95.5L990.5 94.4L994.3 93.9L998.4 93.9L1002.5 94.5L1006.7 95.7L1010.8 97.5L1014.8 99.8L1018.7 102.6L1022.3 105.9L1025.8 109.7L1029.0 113.7L1032.0 118.1L1034.7 122.8L1036.6 127.6M1036.2 127.9L1036.8 132.9L1036.5 137.7L1035.9 142.2L1035.1 146.6L1034.2 150.8L1033.0 154.7L1031.6 158.3L1030.0 161.6L1028.2 164.5L1026.1 167.0L1023.9 169.0L1021.5 170.5L1019.0 171.6L1016.4 172.1L1013.7 172.2L1010.9 171.8L1008.1 171.0L1005.0 169.8L1001.9 168.3L998.6 166.4L995.2 164.3L991.8 162.1L988.5 159.9L985.2 157.8L982.0 155.9L978.8 154.3L975.6 152.9L972.5 151.7L969.3 150.7L966.2 149.8L963.0 148.9L959.7 147.9L956.4 146.8L953.0 145.5L949.6 143.9L946.1 142.0L942.6 139.6L939.1 136.7L935.6 133.2L931.9 129.1L927.6 124.3L922.2 118.8L917.0 112.4L913.7 104.9L912.6 96.4L913.8 87.3L917.1 78.0L922.5 69.0L929.9 60.8L939.1 53.8L949.6 48.4L960.9 45.0L972.6 43.6L984.1 44.3L994.9 46.8L1004.7 50.9L1013.2 56.3L1020.3 62.7L1025.9 69.6L1030.0 76.8L1032.6 84.1L1033.8 91.1L1033.4 97.7L1030.9 103.5L1026.7 108.4L1023.1 112.6L1020.7 116.2L1018.7 119.2L1016.8 121.7L1014.8 123.8L1012.8 125.6L1010.8 127.2L1008.8 128.4L1007.0 129.5L1005.2 130.5L1003.7 131.5L1002.2 132.5L1001.0 133.6L999.9 134.9L999.0 136.4L998.0 138.2L997.1 140.3L995.9 142.6L994.4 145.4L992.7 148.7L991.7 152.3L991.3 155.6L990.7 158.7L989.9 161.7L988.7 164.8L987.3 167.9L985.6 171.1L983.7 174.4L981.5 177.6L979.1 180.8L976.4 183.9L973.6 186.8L970.5 189.6L967.3 192.0L964.0 194.1L960.6 195.7L957.2 196.7L953.9 197.1L950.6 196.7L947.5 195.5L944.2 193.5L940.4 191.1L936.1 188.8L933.0 186.2L932.6 182.1L934.7 176.1L938.5 168.9L943.4 161.3L948.8 153.8L954.4 146.9L959.8 140.8L964.7 135.6L968.8 131.3L972.1 127.8L974.6 125.0L976.4 122.6L977.6 120.7L978.4 118.9L978.8 117.3L978.9 115.6L978.9 113.9L978.9 112.1L978.8 110.1L978.8 108.1L979.0 105.8L979.4 103.4L980.3 101.0L981.7 98.5L983.7 96.2L986.3 94.2L989.4 92.6L992.9 91.5L996.9 91.0L1001.0 91.0L1005.3 91.8L1009.6 93.1L1013.9 95.1L1018.0 97.7L1021.8 100.9L1025.4 104.5L1028.7 108.6L1031.6 113.1L1033.9 117.8L1035.6 122.8L1036.9 127.8M1031.4 128.9L1031.8 133.7L1031.5 138.1L1031.0 142.5L1030.5 146.7L1029.7 150.8L1028.7 154.7L1027.4 158.3L1025.8 161.6L1024.0 164.5L1022.0 166.9L1019.8 168.9L1017.4 170.4L1014.9 171.3L1012.4 171.7L1009.9 171.6L1007.5 171.0L1005.1 170.0L1002.7 168.7L1000.3 167.1L997.8 165.3L995.2 163.4L992.5 161.4L989.7 159.4L986.8 157.5L983.8 155.8L980.7 154.3L977.5 153.0L974.2 151.9L970.8 150.9L967.2 149.9L963.6 149.1L959.9 148.1L956.0 147.1L952.1 145.8L948.0 144.3L943.9 142.4L939.6 140.1L935.2 137.4L930.7 134.1L925.7 130.3L920.1 125.9L914.4 120.9L910.2 114.8L908.6 107.3L909.0 98.8L911.3 89.7L915.5 80.5L921.6 71.5L929.5 63.3L939.1 56.4L949.9 51.1L961.6 47.6L973.5 46.3L985.1 46.9L996.0 49.4L1005.9 53.4L1014.5 58.7L1021.7 64.9L1027.4 71.7L1031.8 78.8L1034.8 85.9L1036.7 92.8L1037.4 99.2L1036.5 104.9L1033.4 109.7L1029.4 113.6L1026.2 117.1L1023.6 120.2L1021.3 122.9L1019.1 125.1L1017.0 127.1L1014.9 128.7L1013.0 130.0L1011.2 131.2L1009.5 132.2L1008.0 133.2L1006.7 134.2L1005.4 135.3L1004.3 136.6L1003.3 138.0L1002.4 139.6L1001.4 141.4L1000.2 143.4L998.4 145.5L995.8 147.9L993.1 150.9L991.3 154.1L989.9 157.3L988.5 160.6L987.0 163.8L985.4 167.2L983.4 170.6L981.3 174.0L978.9 177.4L976.3 180.7L973.3 184.0L970.2 187.2L966.8 190.1L963.2 192.8L959.5 195.1L955.6 197.0L951.7 198.5L947.8 199.3L943.9 199.6L940.1 199.2L936.4 198.5L932.9 197.6L930.7 196.8L931.5 194.5L934.9 189.5L939.6 182.6L945.0 174.8L950.8 166.8L956.8 159.1L962.6 152.0L967.9 145.8L972.6 140.4L976.5 135.9L979.6 132.2L981.9 129.2L983.5 126.6L984.5 124.4L985.0 122.4L985.2 120.5L985.1 118.7L984.9 116.9L984.8 114.9L984.6 112.9L984.6 110.8L984.8 108.5L985.1 106.1L985.8 103.7L986.9 101.3L988.5 99.1L990.6 97.1L993.2 95.5L996.3 94.4L999.7 93.8L1003.4 93.8L1007.2 94.5L1011.1 95.7L1014.9 97.6L1018.5 100.1L1021.9 103.2L1025.0 106.7L1027.6 110.7L1029.8 115.0L1031.2 119.6L1032.0 124.3L1032.8 129.1M1028.1 129.9L1029.0 134.4L1029.5 138.8L1029.9 143.4L1029.9 147.9L1029.5 152.3L1028.7 156.6L1027.6 160.7L1026.0 164.4L1024.1 167.8L1021.9 170.6L1019.4 173.0L1016.7 174.8L1013.8 175.9L1010.8 176.4L1007.8 176.3L1004.9 175.6L1002.1 174.3L999.5 172.7L997.1 170.9L994.7 169.0L992.4 167.1L990.1 165.2L987.7 163.4L985.2 161.7L982.5 160.2L979.7 158.8L976.7 157.6L973.5 156.5L970.1 155.5L966.4 154.6L962.5 153.7L958.4 152.8L954.1 151.7L949.7 150.5L945.0 148.9L940.2 147.0L935.3 144.6L930.3 141.8L925.2 138.4L920.2 134.4L915.6 129.9L912.7 124.6L912.4 118.4L913.7 111.2L916.0 103.5L919.3 95.5L923.8 87.6L929.6 80.0L936.9 73.2L945.3 67.4L954.7 63.0L964.7 60.1L974.8 58.8L984.8 59.2L994.1 61.0L1002.6 64.2L1010.1 68.4L1016.5 73.5L1021.6 79.0L1025.7 84.8L1028.9 90.7L1031.3 96.6L1033.4 102.2L1035.2 107.5L1035.7 112.3L1033.8 116.5L1031.1 120.5L1028.3 124.0L1025.5 127.1L1022.8 129.7L1020.2 131.8L1017.7 133.6L1015.3 135.0L1013.2 136.2L1011.3 137.2L1009.6 138.1L1008.2 139.0L1006.9 139.9L1005.8 140.9L1004.8 142.1L1004.0 143.4L1003.2 144.9L1002.4 146.4L1001.5 148.0L999.7 149.6L997.1 151.6L994.6 154.5L992.7 157.7L990.9 161.2L989.1 164.8L987.2 168.5L985.0 172.3L982.6 176.1L979.9 179.9L977.0 183.7L973.8 187.5L970.3 191.1L966.5 194.6L962.5 197.8L958.4 200.7L954.0 203.3L949.6 205.3L945.3 206.8L941.2 207.7L937.5 207.8L934.7 207.4L933.5 206.2L935.4 203.6L940.1 198.4L945.3 191.3L950.0 183.8L954.6 176.4L959.2 169.3L963.7 162.7L968.0 156.6L972.0 151.3L975.5 146.6L978.5 142.6L980.9 139.1L982.8 136.1L984.1 133.5L984.8 131.1L985.2 128.9L985.3 126.8L985.2 124.7L985.0 122.6L984.8 120.4L984.8 118.2L985.0 115.8L985.4 113.4L986.1 111.0L987.1 108.7L988.4 106.5L990.0 104.5L992.0 102.7L994.3 101.3L996.9 100.2L999.8 99.6L1002.9 99.5L1006.1 100.0L1009.4 101.0L1012.6 102.6L1015.8 104.7L1018.7 107.3L1021.3 110.3L1023.5 113.8L1025.4 117.6L1026.7 121.6L1027.6 125.8L1028.7 130.2M1029.4 129.8L1031.4 129.4L1033.8 128.9L1035.9 128.4L1037.2 128.0L1037.3 127.8L1036.2 127.9L1034.0 128.4L1031.4 128.9L1029.3 129.5L1028.1 129.9L1028.2 130.0ZM1030.2 167.3L1032.6 167.9L1034.4 167.5L1035.2 166.4L1034.5 164.7L1032.6 162.9L1030.0 161.6L1027.5 161.1L1025.8 161.6L1025.3 162.8L1026.0 164.4L1027.8 166.1ZM1005.5 181.2L1007.0 182.6L1008.9 182.5L1010.7 180.7L1011.8 177.7L1011.9 174.4L1010.9 171.8L1009.3 170.6L1007.5 171.0L1005.9 172.8L1004.9 175.6L1004.7 178.6ZM982.0 166.3L980.7 167.4L980.1 167.1L980.5 165.4L981.7 162.7L983.5 159.9L985.2 157.8L986.4 157.0L986.8 157.5L986.3 159.3L985.2 161.7L983.6 164.3ZM956.8 157.5L956.4 158.4L956.4 157.8L957.0 155.7L957.9 152.8L958.9 149.9L959.7 147.9L960.0 147.3L959.9 148.1L959.3 150.1L958.4 152.8L957.5 155.5ZM920.9 137.6L923.8 137.6L927.6 136.4L931.0 134.3L933.1 132.0L933.4 130.1L931.9 129.1L929.1 129.2L925.7 130.3L922.5 132.2L920.2 134.4L919.6 136.4ZM937.4 84.9L938.5 84.3L937.4 81.9L934.6 78.4L930.6 74.5L926.2 71.1L922.5 69.0L920.7 69.1L921.6 71.5L924.9 75.6L929.6 80.0L934.2 83.4ZM998.7 71.0L997.8 70.6L998.0 67.9L999.0 63.6L1000.7 58.5L1002.8 53.9L1004.7 50.9L1005.9 50.6L1005.9 53.4L1004.7 58.5L1002.6 64.2L1000.4 68.8ZM1027.7 108.5L1024.2 108.0L1022.3 106.9L1022.3 105.6L1024.1 104.5L1027.2 103.7L1030.9 103.5L1034.3 104.0L1036.5 104.9L1036.9 106.3L1035.2 107.5L1031.8 108.4ZM1016.3 137.3L1014.3 137.3L1012.1 135.9L1010.2 133.5L1009.2 130.7L1009.5 128.4L1010.8 127.2L1012.8 127.3L1014.9 128.7L1016.7 130.9L1017.7 133.6L1017.5 135.9ZM1001.8 144.8L999.4 144.6L997.2 143.2L995.9 141.2L995.9 139.0L997.0 137.3L999.0 136.4L1001.3 136.7L1003.3 138.0L1004.6 139.9L1004.8 142.1L1003.8 143.9ZM996.4 159.4L997.5 160.2L997.5 160.8L996.5 160.9L994.7 160.5L992.5 159.6L990.7 158.7L989.8 157.8L989.9 157.3L991.0 157.3L992.7 157.7L994.7 158.5ZM977.2 190.9L979.0 191.4L980.3 190.9L980.7 189.5L980.0 187.4L978.4 185.4L976.4 183.9L974.6 183.4L973.3 184.0L973.1 185.5L973.8 187.5L975.3 189.4ZM945.5 213.1L949.3 212.7L952.7 210.0L954.8 205.9L955.1 201.6L953.5 198.3L950.6 196.7L947.2 197.1L943.9 199.6L941.7 203.4L941.2 207.7L942.6 211.3ZM956.8 172.4L954.6 169.7L950.8 167.3L946.3 165.8L942.1 165.5L939.2 166.5L938.5 168.9L940.6 172.0L945.0 174.8L950.2 176.5L954.6 176.4L956.9 174.9ZM976.8 138.7L973.1 137.5L970.0 134.9L968.4 131.5L968.7 128.1L970.9 125.7L974.6 125.0L978.7 126.3L981.9 129.2L983.4 132.8L982.8 136.1L980.3 138.2ZM979.6 120.6L976.5 120.0L974.0 118.2L972.9 115.7L973.4 113.0L975.6 110.9L978.8 110.1L982.2 110.9L984.6 112.9L985.5 115.6L984.8 118.2L982.6 120.0ZM991.6 103.8L989.7 102.9L988.0 100.9L987.0 98.2L986.9 95.5L987.7 93.4L989.4 92.6L991.4 93.4L993.2 95.5L994.3 98.5L994.3 101.3L993.3 103.2ZM1015.6 108.8L1015.2 108.0L1015.7 106.5L1016.9 104.5L1018.7 102.6L1020.5 101.3L1021.8 100.9L1022.4 101.6L1021.9 103.2L1020.5 105.3L1018.7 107.3L1016.8 108.5Z" stroke="#d4d4d8" stroke-opacity="0.42" stroke-width="0.9"/><path d="M985.5 138.5L989.2 144.6L993.2 150.5L996.8 155.7L999.7 159.8L1001.6 162.3L1002.0 163.0L1000.5 162.3L997.5 160.9L993.8 159.6L989.8 159.2L985.5 159.6L981.0 160.7L976.8 162.2L973.6 162.9L972.1 161.3L973.3 155.7L978.4 145.2L985.9 131.5L991.6 118.8L996.4 108.9L1000.7 103.2L1003.7 101.6L1005.4 103.4L1006.0 107.2L1005.8 112.1L1005.1 117.4L1003.5 122.8L1000.1 127.7L995.5 131.6L990.7 134.2L986.2 136.2L982.4 137.9L979.6 140.1L977.7 143.0L976.3 147.0L974.4 151.9L976.6 158.1L980.0 165.2L984.0 172.3L988.7 178.6L994.0 183.4L999.6 185.7L1005.0 184.7L1009.1 180.0L1009.8 172.5L1003.9 163.3L1001.7 156.9L998.3 152.2L993.9 148.5L988.8 145.3L983.2 141.9L977.6 137.2L972.6 130.4L969.2 121.7L973.3 114.0L975.6 107.3L978.1 102.2L981.4 99.7L985.1 100.1L988.7 103.0L991.8 107.6L994.3 113.2L995.8 119.2L996.7 125.4L999.9 131.7L1000.7 137.3L999.8 141.8L997.5 145.2L994.3 147.8L990.6 149.9L987.0 152.3L983.7 155.3L980.5 159.3L977.3 164.7L975.4 171.7L975.4 179.2L977.4 186.1L981.5 191.1L988.1 192.5L996.8 188.4L1006.4 178.2L1013.3 164.0L1014.7 150.9L1014.0 141.3L1012.1 135.0L1009.1 131.6L1005.3 130.2L1000.7 130.0L995.4 130.0L989.7 129.4L984.3 127.9L979.8 125.6L977.1 123.1L975.8 121.3L975.7 120.7L976.5 121.6L978.1 124.1L980.2 128.0L982.5 132.9L985.5 138.7M988.5 137.0L992.5 142.9L996.5 148.4L1000.0 153.2L1002.9 156.8L1004.8 159.0L1005.5 159.6L1004.5 159.1L1001.6 157.8L997.4 156.6L992.7 155.9L988.3 156.2L984.4 157.1L981.1 158.1L978.7 158.1L977.6 156.0L978.1 150.6L979.9 141.2L981.4 128.9L984.0 115.8L989.3 104.8L994.6 98.4L998.7 96.8L1001.0 99.1L1001.8 103.7L1001.3 109.4L1000.2 115.1L998.9 120.5L996.7 125.0L992.9 128.5L988.2 131.1L983.2 133.0L978.9 135.0L975.6 137.5L973.8 141.0L973.4 145.5L976.0 150.5L980.6 156.6L983.8 163.2L987.5 169.5L991.9 175.1L996.8 179.1L1002.0 180.8L1006.8 179.6L1010.7 175.5L1013.2 169.6L1009.8 163.5L1005.1 156.1L1001.0 150.1L996.4 145.6L991.6 142.0L986.8 138.5L982.2 134.1L978.0 128.1L973.0 120.1L968.1 112.0L969.7 104.2L972.9 98.4L977.1 95.8L981.6 96.6L986.0 100.1L989.8 105.5L993.1 111.8L996.0 118.5L1000.4 124.8L1003.4 130.6L1003.3 135.6L1001.9 139.6L999.2 142.7L995.3 145.1L990.7 147.4L986.2 150.2L982.6 153.8L980.6 158.3L979.6 163.7L979.0 169.6L979.6 175.8L981.6 181.3L985.4 185.0L990.8 185.4L997.2 181.2L1003.0 172.2L1005.9 160.3L1007.3 148.2L1008.4 137.9L1007.8 130.7L1005.4 126.9L1002.0 125.6L997.9 125.4L993.4 125.6L988.4 125.2L983.1 123.8L978.1 121.7L974.3 119.3L972.3 117.6L972.2 117.2L973.5 118.5L975.9 121.5L979.0 125.9L982.9 131.3L986.8 137.0M990.1 135.8L993.2 141.7L995.8 146.9L998.2 151.2L1000.2 154.2L1001.6 155.8L1002.1 156.0L1001.5 155.1L999.5 153.6L995.8 152.0L990.9 151.2L985.7 151.3L981.1 152.2L977.3 153.0L974.4 153.0L972.5 151.2L971.7 146.6L972.0 138.3L974.5 126.2L982.1 111.2L991.2 98.6L998.6 91.7L1003.3 90.8L1005.6 94.2L1006.0 100.0L1004.8 106.8L1002.1 113.3L998.5 118.7L995.1 122.7L991.6 125.6L987.8 127.8L983.8 129.7L980.1 131.8L977.4 134.7L976.1 138.8L976.6 144.0L979.9 150.1L981.3 156.5L983.1 162.4L986.0 168.1L989.7 173.0L993.8 176.4L998.2 177.7L1002.1 176.4L1005.1 172.7L1007.8 167.1L1012.5 161.0L1009.8 153.2L1005.0 146.3L999.3 141.4L993.6 137.7L988.4 134.5L984.0 130.7L980.7 125.9L978.6 119.5L972.5 109.9L972.3 100.3L975.5 93.5L980.0 90.8L984.9 92.1L989.5 96.4L993.6 102.6L997.1 109.8L1000.1 117.2L1002.5 124.0L1000.8 129.4L999.6 133.7L998.0 137.1L995.5 139.6L992.1 141.7L987.8 143.9L983.2 146.8L978.9 150.8L975.9 156.1L974.9 161.9L975.0 167.6L975.7 173.2L977.5 178.0L980.6 181.2L985.2 181.6L990.7 178.1L996.6 170.6L1003.1 159.8L1010.5 146.5L1014.3 134.3L1013.9 126.2L1010.7 122.2L1006.1 121.0L1000.9 121.1L995.8 121.4L991.0 121.2L986.4 120.1L982.2 118.2L978.5 115.9L976.1 114.0L975.6 113.7L976.8 115.4L979.2 118.9L982.5 123.9L986.4 129.7L990.0 135.7M987.0 137.4L989.8 143.4L992.3 149.0L994.9 153.8L997.0 157.2L998.4 159.1L998.6 159.3L997.6 158.3L995.6 156.6L992.4 155.1L988.1 154.4L983.1 154.8L977.9 155.9L973.1 157.2L969.3 157.7L966.9 156.2L966.7 151.3L969.9 142.1L978.9 128.7L990.2 114.3L998.9 103.0L1004.9 96.8L1008.5 95.7L1010.2 98.4L1010.3 103.4L1009.2 109.5L1006.8 115.5L1002.8 121.0L998.4 125.4L994.2 128.6L990.2 131.0L986.6 132.9L983.5 134.7L981.2 137.2L979.9 140.7L979.6 145.4L978.4 151.5L977.2 157.9L979.2 164.5L982.3 171.0L986.3 176.6L990.9 180.8L995.7 182.6L1000.1 181.4L1003.3 177.0L1004.3 169.8L1006.9 160.9L1006.3 154.1L1002.2 148.6L996.8 144.4L990.9 141.1L984.9 137.9L979.5 133.8L975.4 128.2L974.6 121.0L977.8 112.1L978.4 103.6L980.9 97.5L984.5 94.8L988.5 95.6L992.3 99.2L995.7 104.7L998.4 111.1L1000.1 117.9L998.7 124.6L997.3 130.6L997.1 135.5L996.0 139.4L994.0 142.2L991.2 144.4L987.9 146.5L984.1 149.0L980.1 152.4L976.0 157.1L972.7 163.0L971.3 169.8L971.4 176.7L973.2 182.9L976.6 187.3L982.2 188.6L989.8 185.2L999.6 176.7L1010.8 163.7L1018.4 149.4L1020.0 138.0L1018.1 130.7L1014.3 127.0L1009.2 125.8L1003.6 125.7L997.7 125.9L992.2 125.5L987.4 124.2L983.7 122.1L981.1 119.8L979.5 117.9L979.1 117.3L979.8 118.4L981.5 121.4L983.8 125.8L986.1 131.3L988.8 137.4M985.5 138.5L986.7 138.0L988.5 137.0L989.9 136.1L990.1 135.8L988.9 136.3L987.0 137.4L985.6 138.3ZM1002.0 163.0L1004.5 162.1L1005.5 159.6L1004.6 157.1L1002.1 156.0L999.7 156.9L998.6 159.3L999.5 161.9ZM981.0 160.7L983.4 160.0L984.4 157.1L983.4 153.8L981.1 152.2L978.8 153.1L977.9 155.9L978.8 159.0ZM985.9 131.5L984.9 130.7L981.4 128.9L977.2 127.1L974.5 126.2L975.1 126.8L978.9 128.7L983.5 130.7ZM1006.0 107.2L1003.0 106.2L1001.8 103.7L1003.0 101.2L1006.0 100.0L1009.0 100.9L1010.3 103.4L1009.0 106.1ZM990.7 134.2L989.6 133.4L988.2 131.1L987.4 128.7L987.8 127.8L988.9 128.8L990.2 131.0L991.0 133.2ZM974.4 151.9L974.4 151.3L976.0 150.5L978.3 150.1L979.9 150.1L980.0 150.7L978.4 151.5L976.1 152.0ZM999.6 185.7L1001.6 183.8L1002.0 180.8L1000.6 178.2L998.2 177.7L996.1 179.4L995.7 182.6L997.1 185.2ZM998.3 152.2L998.8 152.0L1001.0 150.1L1003.6 147.7L1005.0 146.3L1004.4 146.8L1002.2 148.6L999.8 150.8ZM969.2 121.7L969.9 121.1L973.0 120.1L976.7 119.5L978.6 119.5L977.6 120.2L974.6 121.0L971.2 121.6ZM988.7 103.0L986.6 102.3L986.0 100.1L987.2 97.7L989.5 96.4L991.7 97.0L992.3 99.2L991.1 101.7ZM1000.7 137.3L1002.7 136.8L1003.3 135.6L1002.0 134.3L999.6 133.7L997.6 134.3L997.1 135.5L998.4 136.8ZM983.7 155.3L983.9 155.2L982.6 153.8L980.5 151.9L978.9 150.8L978.7 151.1L980.1 152.4L982.1 154.2ZM981.5 191.1L984.5 188.7L985.4 185.0L983.8 181.9L980.6 181.2L977.6 183.4L976.6 187.3L978.3 190.5ZM1014.0 141.3L1010.1 140.3L1008.4 137.9L1010.1 135.4L1014.3 134.3L1018.5 135.5L1020.0 138.0L1018.1 140.4ZM989.7 129.4L988.5 128.2L988.4 125.2L989.4 122.2L991.0 121.2L992.1 122.6L992.2 125.5L991.2 128.3ZM976.5 121.6L974.3 120.7L973.5 118.5L974.5 116.3L976.8 115.4L979.0 116.2L979.8 118.4L978.8 120.7Z" stroke="#71717a" stroke-opacity="0.5" stroke-width="0.8"/><path d="M989.5 138.0h1.3v1.3h-1.3zM983.2 134.7h1.3v1.3h-1.3zM987.2 144.3h1.2v1.2h-1.2zM991.4 131.2h1.2v1.2h-1.2zM976.7 139.4h1.2v1.2h-1.2zM994.3 142.6h1.3v1.3h-1.3zM984.3 128.3h1.3v1.3h-1.3zM981.6 148.0h1.2v1.2h-1.2zM998.4 133.4h1.2v1.2h-1.2zM973.2 132.4h1.2v1.2h-1.2zM992.2 148.8h1.3v1.3h-1.3zM991.1 125.3h1.3v1.3h-1.3zM974.2 145.6h1.3v1.3h-1.3zM1002.1 141.2h1.2v1.2h-1.2zM976.5 123.4h1.3v1.3h-1.3zM985.6 152.6h1.3v1.3h-1.3zM999.3 128.0h1.3v1.3h-1.3zM969.5 137.6h1.3v1.3h-1.3zM1000.0 150.8h1.2v1.2h-1.2zM985.9 117.5h1.3v1.3h-1.3zM977.0 151.3h1.3v1.3h-1.3zM1005.0 135.8h1.3v1.3h-1.3zM970.8 126.9h1.3v1.3h-1.3zM991.8 158.3h1.3v1.3h-1.3zM998.3 118.4h1.3v1.3h-1.3zM969.9 144.4h1.4v1.4h-1.4zM1005.2 146.5h1.3v1.3h-1.3zM979.0 118.0h1.4v1.4h-1.4zM979.7 160.1h1.3v1.3h-1.3zM1008.8 126.7h1.3v1.3h-1.3zM968.0 133.6h1.4v1.4h-1.4zM999.2 156.3h1.3v1.3h-1.3zM991.7 115.1h1.4v1.4h-1.4zM967.7 154.2h1.4v1.4h-1.4zM1013.3 140.3h1.3v1.3h-1.3zM973.0 122.6h1.4v1.4h-1.4zM988.2 161.6h1.4v1.4h-1.4zM1004.6 120.0h1.4v1.4h-1.4zM960.4 141.4h1.4v1.4h-1.4zM1009.6 155.0h1.3v1.3h-1.3zM984.1 115.9h1.4v1.4h-1.4zM975.1 159.9h1.4v1.4h-1.4zM1013.0 131.7h1.4v1.4h-1.4zM961.8 125.5h1.4v1.4h-1.4zM998.2 166.1h1.3v1.3h-1.3zM997.6 116.5h1.4v1.4h-1.4zM964.5 150.6h1.5v1.5h-1.5zM1014.0 146.6h1.4v1.4h-1.4zM972.6 112.2h1.5v1.5h-1.5zM981.7 169.6h1.4v1.4h-1.4zM1008.9 124.5h1.4v1.4h-1.4zM960.8 135.9h1.5v1.5h-1.5zM1006.8 160.3h1.4v1.4h-1.4zM989.7 107.1h1.5v1.5h-1.5zM965.0 163.3h1.5v1.5h-1.5zM1014.2 137.7h1.4v1.4h-1.4zM966.2 120.7h1.5v1.5h-1.5zM992.9 168.5h1.4v1.4h-1.4zM1007.1 112.3h1.5v1.5h-1.5zM953.9 147.6h1.5v1.5h-1.5zM1011.7 152.0h1.4v1.4h-1.4zM979.8 110.7h1.5v1.5h-1.5zM976.2 168.0h1.5v1.5h-1.5zM1019.1 126.3h1.5v1.5h-1.5zM953.6 127.1h1.6v1.6h-1.6zM1001.9 163.3h1.5v1.5h-1.5zM996.9 109.8h1.5v1.5h-1.5zM961.7 157.9h1.6v1.6h-1.6zM1022.0 144.7h1.5v1.5h-1.5zM965.4 109.1h1.6v1.6h-1.6zM987.4 167.8h1.5v1.5h-1.5zM1011.9 118.5h1.5v1.5h-1.5zM955.0 140.5h1.6v1.6h-1.6zM1014.8 162.2h1.5v1.5h-1.5zM985.8 100.6h1.6v1.6h-1.6zM972.2 163.5h1.6v1.6h-1.6zM1019.8 133.9h1.5v1.5h-1.5zM959.6 121.3h1.7v1.7h-1.7zM999.3 173.7h1.5v1.5h-1.5zM1007.6 104.8h1.6v1.6h-1.6zM961.5 151.1h1.6v1.6h-1.6zM1018.6 151.2h1.5v1.5h-1.5zM974.5 107.5h1.7v1.7h-1.7zM979.6 175.4h1.6v1.6h-1.6zM1023.6 120.0h1.6v1.6h-1.6zM959.6 134.1h1.7v1.7h-1.7zM1008.6 165.5h1.6v1.6h-1.6zM994.7 104.3h1.7v1.7h-1.7zM961.5 165.8h1.7v1.7h-1.7zM1029.0 141.2h1.6v1.6h-1.6zM967.8 118.3h1.7v1.7h-1.7zM992.4 172.6h1.6v1.6h-1.6zM1013.2 112.7h1.7v1.7h-1.7zM951.4 146.8h1.8v1.8h-1.8zM1022.9 162.1h1.6v1.6h-1.6zM983.6 109.6h1.7v1.7h-1.7zM974.7 169.9h1.7v1.7h-1.7zM1024.1 129.3h1.7v1.7h-1.7zM954.1 124.4h1.8v1.8h-1.8zM1006.9 177.0h1.7v1.7h-1.7zM1001.3 111.1h1.7v1.7h-1.7zM961.2 157.4h1.8v1.8h-1.8zM1024.7 149.0h1.7v1.7h-1.7zM969.2 107.0h1.9v1.9h-1.9zM985.3 181.5h1.8v1.8h-1.8zM1015.1 121.7h1.7v1.7h-1.7zM956.9 138.9h1.8v1.8h-1.8zM1015.2 165.9h1.7v1.7h-1.7zM991.4 101.0h1.9v1.9h-1.9zM964.3 173.3h1.9v1.9h-1.9zM1021.0 137.7h1.7v1.7h-1.7zM964.0 120.7h1.9v1.9h-1.9zM998.6 175.4h1.8v1.8h-1.8zM1012.7 108.2h1.9v1.9h-1.9zM951.2 154.1h2.0v2.0h-2.0zM1017.8 154.0h1.7v1.7h-1.7zM980.2 109.6h1.9v1.9h-1.9zM979.6 174.6h1.9v1.9h-1.9zM1026.1 125.0h1.9v1.9h-1.9zM951.6 130.1h2.1v2.1h-2.1zM1006.9 165.9h1.8v1.8h-1.8zM999.2 109.4h1.9v1.9h-1.9zM964.2 163.2h2.0v2.0h-2.0zM1028.6 145.7h1.9v1.9h-1.9zM965.8 110.4h2.1v2.1h-2.1zM991.8 170.0h1.9v1.9h-1.9zM1014.5 119.2h1.9v1.9h-1.9zM958.3 144.8h2.0v2.0h-2.0zM1020.5 163.9h1.9v1.9h-1.9zM988.2 102.3h2.1v2.1h-2.1zM977.5 165.2h1.9v1.9h-1.9zM1021.7 134.9h1.9v1.9h-1.9zM964.1 126.3h2.1v2.1h-2.1zM1004.7 174.6h2.0v2.0h-2.0zM1010.1 108.0h2.1v2.1h-2.1zM968.8 153.3h2.0v2.0h-2.0zM1019.5 151.0h1.9v1.9h-1.9zM979.1 114.8h2.1v2.1h-2.1zM986.8 174.8h2.1v2.1h-2.1zM1024.0 123.7h2.1v2.1h-2.1zM969.0 138.9h2.1v2.1h-2.1zM1009.9 162.4h2.0v2.0h-2.0zM996.8 114.1h2.2v2.2h-2.2zM973.1 164.9h2.2v2.2h-2.2zM1026.7 142.7h2.2v2.2h-2.2zM977.3 128.0h2.1v2.1h-2.1zM997.0 165.9h2.1v2.1h-2.1zM1010.0 123.0h2.2v2.2h-2.2zM969.3 149.5h2.3v2.3h-2.3zM1019.1 157.8h2.2v2.2h-2.2zM989.4 124.9h2.1v2.1h-2.1zM986.5 160.8h2.2v2.2h-2.2zM1014.2 136.2h2.2v2.2h-2.2zM976.6 136.7h2.4v2.4h-2.4zM1006.1 163.0h2.3v2.3h-2.3zM998.7 130.4h2.2v2.2h-2.2zM984.5 150.6h2.2v2.2h-2.2zM1008.0 146.2h2.3v2.3h-2.3zM990.9 136.1h2.4v2.4h-2.4zM997.2 151.8h2.5v2.5h-2.5z" fill="#fafafa" fill-opacity="0.35" stroke="none"/></g><animateTransform attributeName="transform" type="rotate" from="0 990 140" to="360 990 140" dur="90s" repeatCount="indefinite"/></g>
  <g>
    <line x1="700" y1="205" x2="1200" y2="205" stroke="url(#horizon)" stroke-width="6" filter="url(#glow)" opacity="0.5" stroke-dasharray="500" stroke-dashoffset="500"><animate attributeName="stroke-dashoffset" from="500" to="0" dur="1.6s" begin="0.4s" fill="freeze"/></line>
    <line x1="700" y1="205" x2="1200" y2="205" stroke="url(#horizon)" stroke-width="1.2" stroke-dasharray="500" stroke-dashoffset="500"><animate attributeName="stroke-dashoffset" from="500" to="0" dur="1.6s" begin="0.4s" fill="freeze"/></line>
  </g>
  <g fill="#a1a1aa" color="#a1a1aa"><use href="#mono13-20" x="64.0" y="92.0"/><use href="#mono13-48" x="74.6" y="92.0"/><use href="#mono13-30" x="85.2" y="92.0"/><use href="#mono13-30" x="95.8" y="92.0"/><use href="#mono13-46" x="106.4" y="92.0"/><use href="#mono13-47" x="117.0" y="92.0"/><use href="#mono13-1" x="127.6" y="92.0"/><use href="#mono13-11" x="138.2" y="92.0"/><use href="#mono13-29" x="148.8" y="92.0"/><use href="#mono13-266" x="170.0" y="92.0"/><use href="#mono13-1" x="191.2" y="92.0"/><use href="#mono13-23" x="201.8" y="92.0"/><use href="#mono13-15" x="223.0" y="92.0"/><use href="#mono13-32" x="233.6" y="92.0"/><use href="#mono13-21" x="244.2" y="92.0"/><use href="#mono13-23" x="254.8" y="92.0"/><use href="#mono13-32" x="265.4" y="92.0"/><use href="#mono13-15" x="276.0" y="92.0"/><use href="#mono13-15" x="286.6" y="92.0"/><use href="#mono13-45" x="297.2" y="92.0"/></g>
  <rect x="318.9999999999999" y="87" width="34" height="1" fill="#71717a"/>
  <path d="M71.70 170L61.37 170L75.35 116.80L92.83 116.80L106.82 170L96.48 170L93.59 158.30L74.59 158.30L71.70 170ZM83.41 123.11L76.95 149.02L91.24 149.02L84.78 123.11L83.41 123.11ZM123.08 170L113.50 170L113.50 116.80L123.08 116.80L123.08 170ZM145.42 171.06L145.42 171.06Q141.40 171.06 138.20 169.66Q135.01 168.25 133.15 165.55Q131.29 162.86 131.29 158.98L131.29 158.98Q131.29 155.10 133.15 152.48Q135.01 149.86 138.32 148.53Q141.62 147.20 145.88 147.20L145.88 147.20L156.22 147.20L156.22 145.07Q156.22 142.41 154.54 140.70Q152.87 138.99 149.22 138.99L149.22 138.99Q145.65 138.99 143.90 140.63Q142.16 142.26 141.62 144.84L141.62 144.84L132.81 141.88Q133.72 138.99 135.73 136.60Q137.75 134.20 141.13 132.72Q144.51 131.24 149.38 131.24L149.38 131.24Q156.82 131.24 161.16 134.96Q165.49 138.69 165.49 145.76L165.49 145.76L165.49 159.82Q165.49 162.10 167.62 162.10L167.62 162.10L170.66 162.10L170.66 170L164.27 170Q161.46 170 159.64 168.63Q157.81 167.26 157.81 164.98L157.81 164.98L157.81 164.91L156.37 164.91Q156.06 165.82 155 167.30Q153.94 168.78 151.66 169.92Q149.38 171.06 145.42 171.06ZM147.10 163.31L147.10 163.31Q151.12 163.31 153.67 161.07Q156.22 158.83 156.22 155.10L156.22 155.10L156.22 154.34L146.56 154.34Q143.90 154.34 142.38 155.48Q140.86 156.62 140.86 158.68L140.86 158.68Q140.86 160.73 142.46 162.02Q144.06 163.31 147.10 163.31ZM187.22 170L177.65 170L177.65 132.30L187.07 132.30L187.07 137.24L188.44 137.24Q189.35 135.27 191.86 133.48Q194.37 131.70 199.46 131.70L199.46 131.70Q203.87 131.70 207.17 133.71Q210.48 135.72 212.30 139.26Q214.13 142.79 214.13 147.50L214.13 147.50L214.13 170L204.55 170L204.55 148.26Q204.55 144.01 202.46 141.88Q200.37 139.75 196.50 139.75L196.50 139.75Q192.09 139.75 189.66 142.68Q187.22 145.60 187.22 150.85L187.22 150.85L187.22 170ZM263.53 170L253.50 170L253.50 125.92L237.99 125.92L237.99 116.80L279.03 116.80L279.03 125.92L263.53 125.92L263.53 170ZM296.21 171.06L296.21 171.06Q290.58 171.06 286.29 168.67Q282.00 166.28 279.60 161.91Q277.21 157.54 277.21 151.61L277.21 151.61L277.21 150.70Q277.21 144.77 279.56 140.40Q281.92 136.03 286.18 133.63Q290.43 131.24 296.06 131.24L296.06 131.24Q301.60 131.24 305.71 133.71Q309.81 136.18 312.09 140.55Q314.37 144.92 314.37 150.70L314.37 150.70L314.37 153.96L286.94 153.96Q287.09 157.84 289.82 160.27Q292.56 162.70 296.51 162.70L296.51 162.70Q300.54 162.70 302.44 160.96Q304.34 159.21 305.33 157.08L305.33 157.08L313.16 161.18Q312.09 163.16 310.08 165.48Q308.06 167.80 304.72 169.43Q301.38 171.06 296.21 171.06ZM287.01 146.82L287.01 146.82L304.64 146.82Q304.34 143.55 302.02 141.58Q299.70 139.60 295.98 139.60L295.98 139.60Q292.10 139.60 289.82 141.58Q287.54 143.55 287.01 146.82ZM332.46 170L322.88 170L322.88 132.30L332.46 132.30L332.46 170ZM327.67 127.90L327.67 127.90Q325.09 127.90 323.30 126.22Q321.52 124.55 321.52 121.82L321.52 121.82Q321.52 119.08 323.30 117.41Q325.09 115.74 327.67 115.74L327.67 115.74Q330.33 115.74 332.08 117.41Q333.83 119.08 333.83 121.82L333.83 121.82Q333.83 124.55 332.08 126.22Q330.33 127.90 327.67 127.90ZM351.00 170L339.76 170L353.44 151L339.91 132.30L351.00 132.30L359.59 144.84L360.96 144.84L369.55 132.30L380.64 132.30L367.12 151L380.80 170L369.55 170L360.96 157.31L359.59 157.31L351.00 170ZM397.67 170L388.09 170L388.09 132.30L397.67 132.30L397.67 170ZM392.88 127.90L392.88 127.90Q390.30 127.90 388.51 126.22Q386.72 124.55 386.72 121.82L386.72 121.82Q386.72 119.08 388.51 117.41Q390.30 115.74 392.88 115.74L392.88 115.74Q395.54 115.74 397.29 117.41Q399.04 119.08 399.04 121.82L399.04 121.82Q399.04 124.55 397.29 126.22Q395.54 127.90 392.88 127.90ZM423.51 171.06L423.51 171.06Q419.02 171.06 415.11 168.82Q411.20 166.58 408.84 162.25Q406.48 157.92 406.48 151.76L406.48 151.76L406.48 150.54Q406.48 144.39 408.84 140.06Q411.20 135.72 415.07 133.48Q418.95 131.24 423.51 131.24L423.51 131.24Q426.93 131.24 429.25 132.04Q431.56 132.84 433.01 134.05Q434.45 135.27 435.21 136.64L435.21 136.64L436.58 136.64L436.58 116.80L446.16 116.80L446.16 170L436.73 170L436.73 165.44L435.36 165.44Q434.07 167.57 431.37 169.32Q428.68 171.06 423.51 171.06ZM426.40 162.70L426.40 162.70Q430.80 162.70 433.77 159.85Q436.73 157.00 436.73 151.53L436.73 151.53L436.73 150.77Q436.73 145.30 433.81 142.45Q430.88 139.60 426.40 139.60L426.40 139.60Q421.99 139.60 419.02 142.45Q416.06 145.30 416.06 150.77L416.06 150.77L416.06 151.53Q416.06 157.00 419.02 159.85Q421.99 162.70 426.40 162.70ZM474.73 171.06L474.73 171.06Q469.11 171.06 464.62 168.78Q460.14 166.50 457.56 162.17Q454.97 157.84 454.97 151.76L454.97 151.76L454.97 150.54Q454.97 144.46 457.56 140.13Q460.14 135.80 464.62 133.52Q469.11 131.24 474.73 131.24L474.73 131.24Q480.36 131.24 484.84 133.52Q489.32 135.80 491.91 140.13Q494.49 144.46 494.49 150.54L494.49 150.54L494.49 151.76Q494.49 157.84 491.91 162.17Q489.32 166.50 484.84 168.78Q480.36 171.06 474.73 171.06ZM474.73 162.55L474.73 162.55Q479.14 162.55 482.03 159.70Q484.92 156.85 484.92 151.53L484.92 151.53L484.92 150.77Q484.92 145.45 482.07 142.60Q479.22 139.75 474.73 139.75L474.73 139.75Q470.32 139.75 467.44 142.60Q464.55 145.45 464.55 150.77L464.55 150.77L464.55 151.53Q464.55 156.85 467.44 159.70Q470.32 162.55 474.73 162.55ZM477.32 128.05L468.96 128.05L474.58 116.80L485.37 116.80L477.32 128.05Z" fill="url(#metal)"/>
  <path d="M71.70 170L61.37 170L75.35 116.80L92.83 116.80L106.82 170L96.48 170L93.59 158.30L74.59 158.30L71.70 170ZM83.41 123.11L76.95 149.02L91.24 149.02L84.78 123.11L83.41 123.11ZM123.08 170L113.50 170L113.50 116.80L123.08 116.80L123.08 170ZM145.42 171.06L145.42 171.06Q141.40 171.06 138.20 169.66Q135.01 168.25 133.15 165.55Q131.29 162.86 131.29 158.98L131.29 158.98Q131.29 155.10 133.15 152.48Q135.01 149.86 138.32 148.53Q141.62 147.20 145.88 147.20L145.88 147.20L156.22 147.20L156.22 145.07Q156.22 142.41 154.54 140.70Q152.87 138.99 149.22 138.99L149.22 138.99Q145.65 138.99 143.90 140.63Q142.16 142.26 141.62 144.84L141.62 144.84L132.81 141.88Q133.72 138.99 135.73 136.60Q137.75 134.20 141.13 132.72Q144.51 131.24 149.38 131.24L149.38 131.24Q156.82 131.24 161.16 134.96Q165.49 138.69 165.49 145.76L165.49 145.76L165.49 159.82Q165.49 162.10 167.62 162.10L167.62 162.10L170.66 162.10L170.66 170L164.27 170Q161.46 170 159.64 168.63Q157.81 167.26 157.81 164.98L157.81 164.98L157.81 164.91L156.37 164.91Q156.06 165.82 155 167.30Q153.94 168.78 151.66 169.92Q149.38 171.06 145.42 171.06ZM147.10 163.31L147.10 163.31Q151.12 163.31 153.67 161.07Q156.22 158.83 156.22 155.10L156.22 155.10L156.22 154.34L146.56 154.34Q143.90 154.34 142.38 155.48Q140.86 156.62 140.86 158.68L140.86 158.68Q140.86 160.73 142.46 162.02Q144.06 163.31 147.10 163.31ZM187.22 170L177.65 170L177.65 132.30L187.07 132.30L187.07 137.24L188.44 137.24Q189.35 135.27 191.86 133.48Q194.37 131.70 199.46 131.70L199.46 131.70Q203.87 131.70 207.17 133.71Q210.48 135.72 212.30 139.26Q214.13 142.79 214.13 147.50L214.13 147.50L214.13 170L204.55 170L204.55 148.26Q204.55 144.01 202.46 141.88Q200.37 139.75 196.50 139.75L196.50 139.75Q192.09 139.75 189.66 142.68Q187.22 145.60 187.22 150.85L187.22 150.85L187.22 170ZM263.53 170L253.50 170L253.50 125.92L237.99 125.92L237.99 116.80L279.03 116.80L279.03 125.92L263.53 125.92L263.53 170ZM296.21 171.06L296.21 171.06Q290.58 171.06 286.29 168.67Q282.00 166.28 279.60 161.91Q277.21 157.54 277.21 151.61L277.21 151.61L277.21 150.70Q277.21 144.77 279.56 140.40Q281.92 136.03 286.18 133.63Q290.43 131.24 296.06 131.24L296.06 131.24Q301.60 131.24 305.71 133.71Q309.81 136.18 312.09 140.55Q314.37 144.92 314.37 150.70L314.37 150.70L314.37 153.96L286.94 153.96Q287.09 157.84 289.82 160.27Q292.56 162.70 296.51 162.70L296.51 162.70Q300.54 162.70 302.44 160.96Q304.34 159.21 305.33 157.08L305.33 157.08L313.16 161.18Q312.09 163.16 310.08 165.48Q308.06 167.80 304.72 169.43Q301.38 171.06 296.21 171.06ZM287.01 146.82L287.01 146.82L304.64 146.82Q304.34 143.55 302.02 141.58Q299.70 139.60 295.98 139.60L295.98 139.60Q292.10 139.60 289.82 141.58Q287.54 143.55 287.01 146.82ZM332.46 170L322.88 170L322.88 132.30L332.46 132.30L332.46 170ZM327.67 127.90L327.67 127.90Q325.09 127.90 323.30 126.22Q321.52 124.55 321.52 121.82L321.52 121.82Q321.52 119.08 323.30 117.41Q325.09 115.74 327.67 115.74L327.67 115.74Q330.33 115.74 332.08 117.41Q333.83 119.08 333.83 121.82L333.83 121.82Q333.83 124.55 332.08 126.22Q330.33 127.90 327.67 127.90ZM351.00 170L339.76 170L353.44 151L339.91 132.30L351.00 132.30L359.59 144.84L360.96 144.84L369.55 132.30L380.64 132.30L367.12 151L380.80 170L369.55 170L360.96 157.31L359.59 157.31L351.00 170ZM397.67 170L388.09 170L388.09 132.30L397.67 132.30L397.67 170ZM392.88 127.90L392.88 127.90Q390.30 127.90 388.51 126.22Q386.72 124.55 386.72 121.82L386.72 121.82Q386.72 119.08 388.51 117.41Q390.30 115.74 392.88 115.74L392.88 115.74Q395.54 115.74 397.29 117.41Q399.04 119.08 399.04 121.82L399.04 121.82Q399.04 124.55 397.29 126.22Q395.54 127.90 392.88 127.90ZM423.51 171.06L423.51 171.06Q419.02 171.06 415.11 168.82Q411.20 166.58 408.84 162.25Q406.48 157.92 406.48 151.76L406.48 151.76L406.48 150.54Q406.48 144.39 408.84 140.06Q411.20 135.72 415.07 133.48Q418.95 131.24 423.51 131.24L423.51 131.24Q426.93 131.24 429.25 132.04Q431.56 132.84 433.01 134.05Q434.45 135.27 435.21 136.64L435.21 136.64L436.58 136.64L436.58 116.80L446.16 116.80L446.16 170L436.73 170L436.73 165.44L435.36 165.44Q434.07 167.57 431.37 169.32Q428.68 171.06 423.51 171.06ZM426.40 162.70L426.40 162.70Q430.80 162.70 433.77 159.85Q436.73 157.00 436.73 151.53L436.73 151.53L436.73 150.77Q436.73 145.30 433.81 142.45Q430.88 139.60 426.40 139.60L426.40 139.60Q421.99 139.60 419.02 142.45Q416.06 145.30 416.06 150.77L416.06 150.77L416.06 151.53Q416.06 157.00 419.02 159.85Q421.99 162.70 426.40 162.70ZM474.73 171.06L474.73 171.06Q469.11 171.06 464.62 168.78Q460.14 166.50 457.56 162.17Q454.97 157.84 454.97 151.76L454.97 151.76L454.97 150.54Q454.97 144.46 457.56 140.13Q460.14 135.80 464.62 133.52Q469.11 131.24 474.73 131.24L474.73 131.24Q480.36 131.24 484.84 133.52Q489.32 135.80 491.91 140.13Q494.49 144.46 494.49 150.54L494.49 150.54L494.49 151.76Q494.49 157.84 491.91 162.17Q489.32 166.50 484.84 168.78Q480.36 171.06 474.73 171.06ZM474.73 162.55L474.73 162.55Q479.14 162.55 482.03 159.70Q484.92 156.85 484.92 151.53L484.92 151.53L484.92 150.77Q484.92 145.45 482.07 142.60Q479.22 139.75 474.73 139.75L474.73 139.75Q470.32 139.75 467.44 142.60Q464.55 145.45 464.55 150.77L464.55 150.77L464.55 151.53Q464.55 156.85 467.44 159.70Q470.32 162.55 474.73 162.55ZM477.32 128.05L468.96 128.05L474.58 116.80L485.37 116.80L477.32 128.05Z" fill="url(#glint)"/>
  <rect x="64" y="190" width="240" height="2" rx="1" fill="url(#rule)" transform="scale(0 1)">
    <animateTransform attributeName="transform" type="scale" from="0 1" to="1 1" dur="0.9s" begin="0.2s" fill="freeze" calcMode="spline" keySplines="0.16 1 0.3 1" keyTimes="0;1"/>
  </rect>
  <g fill="#a1a1aa" color="#a1a1aa"><use href="#pj20-1" x="64.0" y="230.0"/><use href="#pj20-23" x="77.0" y="230.0"/><use href="#pj20-59" x="85.6" y="230.0"/><use href="#pj20-78" x="97.0" y="230.0"/><use href="#pj20-72" x="110.2" y="230.0"/><use href="#pj20-92" x="122.5" y="230.0"/><use href="#pj20-108" x="134.0" y="230.0"/><use href="#pj20-106" x="141.8" y="230.0"/><use href="#pj20-185" x="151.9" y="230.0"/><use href="#pj20-108" x="160.7" y="230.0"/><use href="#pj20-79" x="168.5" y="230.0"/><use href="#pj20-72" x="180.0" y="230.0"/><use href="#pj20-1" x="195.7" y="230.0"/><use href="#pj20-42" x="208.7" y="230.0"/><use href="#pj20-23" x="221.6" y="230.0"/><use href="#pj20-106" x="226.7" y="230.0"/><use href="#pj20-67" x="240.3" y="230.0"/><use href="#pj20-72" x="253.6" y="230.0"/><use href="#pj20-79" x="265.9" y="230.0"/><use href="#pj20-80" x="277.4" y="230.0"/><use href="#pj20-92" x="281.9" y="230.0"/><use href="#pj20-70" x="293.4" y="230.0"/><use href="#pj20-108" x="310.1" y="230.0"/><use href="#pj20-79" x="317.9" y="230.0"/><use href="#pj20-72" x="329.4" y="230.0"/><use href="#pj20-91" x="341.7" y="230.0"/><use href="#pj20-59" x="363.2" y="230.0"/><use href="#pj20-92" x="374.7" y="230.0"/><use href="#pj20-70" x="386.1" y="230.0"/><use href="#pj20-108" x="402.9" y="230.0"/><use href="#pj20-79" x="410.6" y="230.0"/><use href="#pj20-72" x="422.1" y="230.0"/><use href="#pj20-59" x="437.8" y="230.0"/><use href="#pj20-102" x="449.2" y="230.0"/><use href="#pj20-102" x="462.6" y="230.0"/><use href="#pj20-106" x="475.9" y="230.0"/><use href="#pj20-94" x="489.5" y="230.0"/><use href="#pj20-92" x="502.6" y="230.0"/><use href="#pj20-108" x="517.4" y="230.0"/><use href="#pj20-94" x="524.8" y="230.0"/><use href="#pj20-102" x="537.9" y="230.0"/><use href="#pj20-202" x="554.6" y="230.0"/><use href="#pj20-10" x="576.0" y="230.0"/><use href="#pj20-59" x="589.9" y="230.0"/><use href="#pj20-105" x="601.3" y="230.0"/><use href="#pj20-68" x="608.1" y="230.0"/><use href="#pj20-72" x="620.1" y="230.0"/><use href="#pj20-90" x="632.4" y="230.0"/><use href="#pj20-94" x="636.9" y="230.0"/><use href="#pj20-92" x="650.0" y="230.0"/><use href="#pj20-59" x="661.5" y="230.0"/></g>
  <g fill="#d4d4d8" color="#d4d4d8"><use href="#monoM14-59" x="1010.0" y="266.0"/><use href="#monoM14-90" x="1018.4" y="266.0"/><use href="#monoM14-59" x="1026.8" y="266.0"/><use href="#monoM14-92" x="1035.2" y="266.0"/><use href="#monoM14-108" x="1043.6" y="266.0"/><use href="#monoM14-72" x="1052.0" y="266.0"/><use href="#monoM14-80" x="1060.4" y="266.0"/><use href="#monoM14-116" x="1068.8" y="266.0"/><use href="#monoM14-80" x="1077.2" y="266.0"/><use href="#monoM14-70" x="1085.6" y="266.0"/><use href="#monoM14-94" x="1094.0" y="266.0"/></g><g fill="#71717a" color="#71717a"><use href="#mono14-140" x="1102.4" y="266.0"/><use href="#mono14-70" x="1110.8" y="266.0"/><use href="#mono14-72" x="1119.2" y="266.0"/><use href="#mono14-114" x="1127.6" y="266.0"/></g>
  <rect x="0.5" y="0.5" width="1199" height="299" rx="16" fill="none" stroke="#27272a"/>
</g></svg>
